<?xml version="1.0" encoding="UTF-8" standalone="no"?>
<!DOCTYPE svg PUBLIC "-//W3C//DTD SVG 1.1//EN" "http://www.w3.org/Graphics/SVG/1.1/DTD/svg11.dtd"><svg width="100%" height="100%" viewBox="0 0 229 1222" version="1.1" xmlns="http://www.w3.org/2000/svg" xmlns:xlink="http://www.w3.org/1999/xlink" xml:space="preserve" xmlns:serif="http://www.serif.com/" style="fill-rule:evenodd;clip-rule:evenodd;">

    <path id="XII" d="M199.929,1221.68l-0.794,-2.12l-0.277,-0.19l-1.433,0.01l-2.9,0.85l-0.328,-0.14l-0.242,-0.36l-0.034,-0.69l0.362,-0.9l0.777,-0.21l0.277,-0.03l0.656,0.24l0.483,0.12l0.984,0.19l2.572,0.07l0.933,-0.71l0.276,-0.13l1.105,0.32l0.414,0.56l-0.725,2.03l-0.276,0.33l-1.157,-0.4l-0.293,0.04l-0.38,1.12Zm8.666,-0.31l-2.521,-1.37l-1.519,-1.27l0.155,-0.61l0.259,-0.19l0.449,-0.15l1.364,0.1l1.795,0.59l0.846,1.21l0.087,1.53l-0.915,0.16Zm-1.816,-4.54l0.034,-1.33l-0.224,-0.22l-1.312,-0.35l-1.468,0.38l-2.279,-0.81l-0.103,-1.11l0.328,-2.1l2.797,-3.09l1.432,-0.75l0.432,-0.01l2.089,6.35l0.397,1.73l-0.121,0.48l-0.552,0.48l-0.535,0.21l-0.915,0.14Zm-54.721,-26.47l-1.087,0.68l-2.245,1.72l-3.677,1.07l-0.621,0.04l-1.52,-1.47l1.347,-0.24l0.518,-0.43l-1.502,-1.63l-2.728,-0.14l-0.414,-0.44l0.535,-1.23l1.934,-2.19l0.88,-0.43l2.521,-0.59l3.677,-0.42l6.871,-1.29l4.161,-1.09l4.972,-0.43l3.919,0.16l0.57,-0.12l1.726,-1.35l1.968,-0.36l3.608,-0.38l2.607,1.03l1.537,2.09l0.397,1.69l-0.294,1.13l-5.628,2.6l-0.431,0.66l-1.451,0.38l-3.021,-0.83l-1.26,-0.81l-0.881,-0.9l-0.776,-0.69l-0.501,-0.38l-2.762,-1.93l-0.518,0l-0.466,1.03l2.347,2.64l1.727,1.07l2.883,1.7l4.402,0.19l3.695,0.06l1.623,0.13l2.538,1.69l1.691,1.88l-0.138,0.83l-7.302,1.09l-1.399,0.01l-0.535,-0.07l-0.57,-0.17l-0.5,-0.69l-0.466,-1.16l-0.605,-0.57l-0.725,0.02l-0.863,0.69l3.436,3.7l1.363,-0.4l0.726,-0.47l0.604,-0.27l0.759,-0.12l1.209,0.22l1.657,0.73l4.437,2.17l0.449,0.88l-0.19,1.21l-0.397,0.88l1.036,0.33l1.467,-0.19l-1.018,2.28l1.519,2.55l0.742,0.31l1.192,0.16l-0.294,3.47l-1.813,1.76l-0.31,0.26l-0.121,0.05l-0.674,-0.16l-0.328,-0.63l-0.811,-1.28l-1.934,-2.23l-0.966,-2.14l0.293,-1.6l-2.693,-2.28l-0.483,-0.16l-0.829,1.04l-1.416,0.1l-1.657,-1.5l-1.692,-0.11l-2.97,0.04l-0.984,1.23l-1.346,0.58l-0.622,-0.02l-1.087,-0.84l-1.105,-1.31l-0.708,-1.42l0.811,-1.22l1.64,-0.51l0.639,-0.1l0.604,0.26l0.829,-0.19l0.345,-2.18l-3.142,1.13l-0.362,-0.83l0.466,-2.45l0.742,-2.18l1.002,-1.09l0.241,-0.81l-3.867,3.01l-1.536,0.38l-2.78,-0.87l-0.621,-0.38l-0.674,-0.65l-0.552,-0.94l-0.691,-2.83l-3.176,0.59l-0.656,0.23l-0.553,0.39l1.554,-0.14l1.692,0.19l0.69,2.58l-2.607,0.98l-0.379,1.78l2.106,3.26l0.069,2.64l2.158,0.5l1.709,0.12l-0.207,2.56l-0.432,0.45l-3.815,-0.99l-2.538,0.49l-1.605,-3.77l0.656,-1.5l1.294,-0.31l0.449,-0.41l-1.743,-0.97l-0.674,-0.05l-1.968,1.72l-0.949,-1.84l-2.227,-1.02l0.138,-1.33l0.742,-1.45l1.899,-1.5l0.673,-0.21l0.812,-0.36l0.587,-0.85l-1.002,0Zm44.607,19.23l-0.242,-0.32l0.88,-4.46l0.363,-0.53l0.535,-0.35l0.363,0.02l0.414,0.45l0.259,0.33l0.38,0.5l0.241,0.34l0.259,0.71l-0.069,1.48l-1.243,0.97l-0.535,0.38l-0.656,0.24l-0.949,0.24Zm21.618,-16.93l0.483,0.52l0.553,2.14l-0.38,1.02l-0.777,0.62l-0.466,0.14l-2.659,-0.14l-1.226,-0.11l-0.241,-0.2l-0.259,-2.13l0.707,-1.14l0.553,-0.32l1.916,-0.76l0.691,-0.07l0.466,0.1l0.414,0.17l0.225,0.16Zm-10.527,3.42l-0.293,0l-2.486,-0.76l-0.415,-0.18l-0.535,-0.34l-0.328,-0.42l-0.155,-0.43l0.069,-0.7l0.501,-0.63l0.276,-0.45l0.069,-0.46l-0.173,-0.4l-0.5,-0.53l-0.501,-0.38l-0.639,-0.23l-0.725,-0.17l-0.501,-0.02l-0.466,0.12l-0.828,0.37l-0.294,0.29l-0.224,0.36l-0.259,0.62l-0.242,1.07l0.069,1.07l-0.276,0.31l-0.38,0.07l-3.522,-0.26l-0.432,-0.15l-1.312,-0.79l0.363,-0.47l0.328,0l-0.035,-0.76l-0.742,-1.33l-0.466,0.17l-3.229,1.75l-0.794,0.48l-0.172,0.02l-0.535,-0.07l-0.415,-0.17l-0.362,-0.25l-0.449,-0.45l-0.173,-0.41l-0.967,-4.59l0.156,-0.73l-0.553,-4.05l-0.483,0.12l-2.244,0.12l-0.743,-0.93l-0.328,-1.49l0.397,-0.55l0.276,-0.16l3.263,-0.55l3.246,-0.02l2.365,0.02l2.521,0.29l2.141,0.21l3.401,0.16l1.553,-0.16l0.553,-0.03l3.107,-0.02l1.054,0.1l1.674,0.4l0.915,0.26l0.829,0.34l0.587,0.3l0.949,0.52l0.449,0.43l2.745,4.23l0.052,2.74l-0.639,1.87l-0.328,0.69l-0.224,0.36l-3.229,4.3l-0.241,0.19l-1.071,0.14Zm17.358,-1.14l-0.259,0l-1.14,-0.3l-0.241,-0.34l-0.138,-0.74l-0.018,-0.44l0.415,-1.76l2.14,-1.55l0.57,-0.04l0.38,0.06l1.692,0.79l0.293,0.76l-2.227,2.85l-1.467,0.71Zm-92.405,-16.56l0.691,0.09l0.242,0.26l-3.194,1.48l-1.053,0.11l-0.484,0.41l-0.069,0.69l0.087,0.73l-0.225,0.39l-2.71,0.43l-0.846,-0.07l-0.656,-0.22l-0.553,-0.34l-0.293,0.17l-0.294,0.72l1.951,0.83l3.988,0.52l3.142,-0.52l0.38,-0.03l1.278,-0.05l0.241,0.13l0.156,0.85l0.362,2.59l-0.725,0.71l-0.656,0.07l-0.328,-0.13l-0.293,-0.27l-0.225,-0.66l-0.621,-0.69l-0.501,-0.1l-0.259,-0.11l-0.829,0.68l-0.086,0.98l0.224,0.36l0.657,0.37l0.535,0.08l0.276,0.18l0.155,0.41l-0.259,0.6l-3.625,1.68l-0.449,-0.05l-0.242,-0.35l-0.138,-0.58l-0.069,-0.8l0,-1.09l0.432,-0.95l-1.399,-1.65l-2.278,1.91l-0.536,-0.12l-5.317,-2.02l-1.744,-1.43l-0.19,-3.35l0.328,-0.41l0.363,-0.23l2.71,-0.59l2.02,0.47l1.036,0.33l1.14,0.57l3.055,0.1l0.432,-0.24l-1.347,-0.59l0.173,-0.43l2.486,-1.43l0.328,-0.1l1.502,-0.07l2.123,-0.23Zm81.427,4.2l1.191,0.32l2.676,1.01l0.311,0.41l0.967,3.26l-0.363,0.19l-0.483,-0.22l-5.473,-3.78l-0.276,-0.59l0.12,-0.45l0.208,-0.24l0.483,-0.09l0.466,0.12l0.173,0.06Zm-70.367,1.97l0.19,-1.23l-0.034,-0.52l-0.432,-0.95l-0.725,-0.24l-0.138,-0.64l0.552,-2.67l0.242,-0.19l1.467,-0.54l0.242,-0.05l2.711,-0.47l1.312,0.05l6.94,1.49l0.708,0.17l4.143,1.33l0.932,0.88l-0.431,0.29l-0.794,0.07l-4.593,1.16l-2.399,0.73l-3.626,0.65l-2.71,0.47l-3.557,0.21Zm-6.409,-1.44l-0.259,-0.03l-0.363,-0.21l-0.362,-0.38l0,-0.45l0.328,-0.4l0.293,-0.27l3.54,-1.92l0.414,-0.17l0.363,0.02l0.241,0.2l0.294,0.45l0.017,0.64l-0.846,1.3l-2.313,0.93l-1.347,0.29Zm-21.948,-2.31l-0.415,-0.04l-1.795,-0.86l-1.364,-1.17l-2.935,1.86l-0.38,0.19l-1.64,-0.47l-1.156,-2.57l1.294,-2.42l1.174,0.11l3.781,0.81l1.588,0.5l0.674,0.5l0.828,0.36l0.605,-0.12l0.535,-0.33l0.38,-0.5l0.293,-0.06l1.278,0.94l0.759,2.02l-0.5,0.23l-0.812,0.02l-2.192,1Zm17.073,-90.59l-0.484,0.07l-0.673,0.14l-0.345,-0.09l-0.138,-0.36l0.57,-0.83l0.69,-0.41l4.506,-0.83l0.466,-0.07l0.604,0.12l0.622,0.36l0.259,0.28l0.328,0.5l0.362,0.88l0.829,1.25l0.38,0.46l0.604,0.52l0.604,0.24l0.501,0.07l0.501,-0.05l0.587,-0.24l4.264,-2.54l0.518,-0.47l0.449,-0.65l2.227,-3.8l0.224,-0.76l0.035,-0.54l-0.138,-3.24l0.518,-0.61l0.535,-0.43l2.779,-1.48l0.864,-0.28l1.381,1.8l0.224,0.32l0.156,0.4l0.103,0.45l0.052,0.5l0.207,0.48l2.728,3.75l0.276,0.28l0.742,0.65l0.657,0.45l0.673,0.17l0.397,-0.01l0.673,-0.3l2.78,-1.38l3.194,-2.1l0.31,-0.25l0.346,-0.5l2.866,1.16l1.899,1.47l-0.018,0.36l-0.051,5.84l-0.087,19.61l0.017,2.54l-0.034,7.06l-0.069,13.65l-0.052,6.56l-0.069,14.09l0.035,0.86l-0.035,8.05l0.035,10.31l-0.035,4.1l-0.138,0.16l-0.173,0.05l-0.414,-0.03l-0.294,-0.16l-0.517,-0.52l-0.881,-1.01l-0.501,-0.38l-3.297,-1.61l0.984,1.73l0.259,0.32l0.328,0.4l0.604,0.43l1.036,0.43l0.259,0.85l-0.518,0.71l-0.794,0.38l-3.885,0.78l-2.606,0.29l-0.587,-0.02l-0.501,-0.1l-9.064,-3.33l-1.692,-0.68l-2.572,-1.4l-0.242,-0.96l0.138,-0.47l0.725,-0.79l0.121,-0.47l-0.103,-2.64l-0.259,0.03l-1.882,1.3l-0.173,2.52l-0.448,0.93l-8.564,1.88l-3.021,0.21l-0.811,0.04l-0.829,-0.23l-0.621,-0.41l-0.346,-0.83l-0.086,-1.4l0.397,-0.64l0.518,-0.66l1.295,-2.24l0.103,-0.57l-0.293,-0.24l-2.124,2.73l-0.656,1.43l-0.241,0.69l-0.018,0.43l-0.742,0.28l-0.932,-0.26l-4.817,-0.31l-2.676,1.38l-0.345,0.09l-0.294,-0.02l-0.949,-0.24l-0.518,-0.37l-0.345,-0.57l1.174,-1.5l0.414,-0.33l0.38,-0.13l0.984,-0.21l0.742,-0.28l1.485,-0.88l2.106,-1.38l0.449,-0.41l1.433,-2.09l0.138,-0.5l-0.207,-0.23l-0.501,-0.05l-1.485,0.07l-0.328,0.1l-1.64,1.82l0.38,0.38l0.622,0.39l-0.173,0.37l-1.139,0.72l-2.21,0.78l-1.761,0.46l-2.383,-0.1l-0.552,-1.33l0.345,-0.22l1.088,0.01l1.933,-0.63l0.259,-0.3l-0.276,-0.29l-0.362,-0.09l-0.259,0.02l-1.537,0.47l-1.588,1.29l-1.882,2.42l-0.621,0.17l-0.242,-0.31l0.017,-0.52l0.225,-0.52l0.224,-0.36l0.363,-0.5l0.224,-0.38l0.19,-0.43l0.656,-2.75l-0.052,-0.89l-1.07,-0.25l-0.656,0.5l0.086,0.61l-0.138,0.47l-0.363,0.51l-2.607,1.5l-0.397,0.19l-2.261,-1l-0.484,-0.26l-0.241,-0.34l-0.018,-0.47l0.311,-0.27l0.363,-0.05l0.345,-1.32l-0.104,-1.57l-1.743,-2.35l-0.466,0.04l-1.174,1.33l-1.848,4.83l-0.172,0.93l-0.259,-0.03l-0.38,-0.22l-3.902,-2.96l-0.293,-0.38l-0.691,-0.08l-0.725,0.26l-1.036,0.93l-0.518,0.72l-0.466,0.19l-2.348,0.16l-0.259,-0.04l-0.587,-0.17l-0.38,-0.41l-0.259,-0.8l-0.569,-2.47l-0.19,-2.48l0.19,-1.97l0.293,-0.29l0.363,-0.06l1.312,0.51l1.157,1.29l0.345,0.9l0.086,0.46l0.328,0.54l0.466,0.28l1.83,0.72l1.537,0.54l0.293,0.01l2.296,-1.19l-2.848,-3.31l-0.553,-0.31l-0.328,0.07l-0.846,0.43l-0.397,0.01l-1.07,-0.67l-0.311,-0.43l-0.19,-1.31l1.399,-0.81l0.638,-0.07l0.553,0.05l0.259,0.05l0.449,0.47l0.259,1.08l1.692,2.47l0.414,0.33l0.397,0.19l0.915,0.23l1.761,-0.71l0.121,-0.42l-0.432,-0.43l-1.45,-0.21l-0.397,-0.2l-0.276,-0.3l-0.397,-0.74l-0.259,-0.93l0.397,-0.52l0.328,-0.03l3.453,1.52l1.743,-0.82l-1.156,-0.69l0.466,-0.65l0.932,-0.68l0.38,0.02l4.092,2.49l5.369,1.64l0.811,-2.26l0.017,-0.57l-0.034,-0.52l-0.069,-0.48l-0.225,-1.06l0.259,-0.48l1.036,-0.66l0.967,-0.31l1.07,-0.05l0.846,0.05l2.659,0.28l0.259,0.05l0.949,0.36l0.139,0.37l-1.433,2.2l-0.984,2.37l-0.518,2.5l-0.501,3.37l0.846,-1l1.864,1.64l-1.122,-2.11l-0.19,-0.38l-0.241,-0.95l0.103,-0.7l0.794,-2.51l0.19,-0.4l0.518,-0.79l0.328,-0.4l0.95,-0.93l0.414,-0.02l0.311,0.76l0.345,0.59l2.573,2.23l0.846,0.38l0.31,0.2l0.276,0.26l1.295,1.09l0.259,0.33l0.225,0.34l0.276,0.59l0.328,0.54l0.518,0.22l0.501,0.05l2.727,-1.19l-2.279,-1.72l-0.587,-0.44l-1.035,-0.57l-0.605,-0.27l-1.225,-0.66l-0.449,-0.26l-0.535,-0.36l-0.967,-0.69l-0.294,-0.43l-1.226,-2.18l0.225,-0.81l-0.086,-0.64l-0.363,-0.64l-0.311,-0.41l-0.397,-0.47l-0.604,-0.41l-1.45,-0.48l-0.484,-0.09l-1.07,-0.12l-2.106,0.12l-0.863,-0.04l-0.449,-0.12l-0.346,-0.24l-0.466,-0.46l-0.345,-0.59l-0.95,-3.92l0.933,-0.29l0.604,0.53l1.847,1.37l3.246,1.69l7.441,4.21l4.609,4.3l0.432,0.21l1.692,-1.94l0.086,-0.43l-0.293,-0.29l-1.761,-0.43l-0.432,-0.16l-0.57,-0.59l-0.224,-0.48l0.052,-0.47l1.588,-1.55l0.915,-0.81l0.414,-0.31l0.346,-0.07l0.259,0.03l1.191,0.85l0.846,1.17l2.503,5.49l1.796,4.65l0.604,0.76l0.449,-0.23l0.345,-3.05l-1.623,-3.97l-0.932,-2.14l-0.415,-0.32l-0.535,-0.55l0.397,-1.05l0.225,-0.21l0.552,-0.02l0.984,0.28l2.763,1.45l0.569,0.59l0.639,0.86l6.043,1.5l3.262,1.95l0.346,0.25l0.224,0.34l0.121,0.61l-0.069,0.46l-1.83,2.26l-0.259,0.19l-0.915,0.54l-0.345,0.4l-0.984,2.08l-0.294,0.73l0.777,2.28l0.259,0.27l0.259,-1.46l0.88,-2.21l0.639,-1.42l0.277,-0.6l0.31,-0.42l0.76,-0.57l0.518,-0.15l0.293,0.12l0.225,0.34l0.328,0.82l0.397,1.05l0.121,-0.12l0.587,-1.02l-0.363,-1.45l-0.259,-0.61l-0.034,-0.86l0.172,-0.64l0.346,-0.67l0.276,-0.16l1.105,0.02l0.259,0.04l0.725,0.31l0.915,0.81l0.328,-0.05l0.328,-0.37l0.034,-1.53l-0.362,-0.43l-0.346,-0.25l-1.605,-1l-4.558,-2.67l-3.366,-1.59l-0.656,-0.23l-2.038,-0.88l-0.345,-0.24l-0.328,-0.4l-0.501,-0.81l-2.693,-1.08l-0.69,-0.19l-0.484,-0.09l-0.552,-0.05l-0.484,-0.09l-0.656,-0.22l-2.175,-0.87l-4.022,-2.83l-0.432,-0.46l-0.207,-0.5l-1.917,-6.41l-0.69,-3.57l-0.155,-0.97l-0.07,-0.78l0.087,-0.84l0.483,-0.9l0.432,-0.41l5.593,-3.61l0.328,-0.09l0.76,0.1l0.535,0.04l0.294,0.02l0.5,-0.06l1.278,-0.43l9.841,-5.5l0.328,-0.25l0.328,-0.6l0.12,-0.81l0,-0.43l-0.397,-4.22l-0.224,-0.55l-0.466,-0.45l-4.696,-0.39l-0.794,0.03l-7.096,1.09l-0.242,0.07l-1.018,0.38l-0.881,0.55l-1.001,0.83l-0.311,0.39l-0.552,0.95l-0.466,0.3l-3.177,1.45l-0.362,0.07l-0.259,-0.04l-0.397,-0.19l-0.501,-0.36l-4.489,-3.76l-0.155,-0.42l-0.691,-3.17l-0.155,-2.04l0.017,-0.55l0.725,-7.36l0.138,-0.57l0.156,-0.41l0.345,-0.49l1.865,-2.24l0.31,0.29l-0.362,0.97l-0.052,0.64l0.483,1.98l0.415,0.11l2.831,-0.92l0.397,-0.15l0.518,-0.33l0.293,-0.28l0.259,-0.29l0.225,-0.33l0.173,-0.4l0.656,-2.33l0.069,-0.5l-0.052,-0.65l-0.242,-0.43l-2.555,-0.45l-1.157,-1.85l-0.034,-0.5l-0.225,-0.59l-0.449,-0.5l-0.586,-0.28l-0.743,-0.12l-0.276,0Zm-6.417,88.4l-1.83,0l-1.277,-0.76l-0.346,-0.61l0.346,-0.34l0.828,-0.49l2.642,-0.76l1.83,-0.2l1.087,0.38l0.138,0.05l0.605,0.17l0.483,0.24l0.587,0.81l-0.259,0.47l-0.311,0.1l-4.523,0.94Zm-45.338,-20.08l-0.293,-0.14l-1.226,-1.66l-0.38,-1.76l2.745,-1.57l0.535,0.05l2.642,1.09l0.121,0.45l-0.242,0.88l-1.709,0.77l-0.294,-0.01l-1.899,1.9Zm28.98,-17.46l0.587,2.61l1.986,0.43l2.192,-0.97l1.675,1.18l0.224,0.48l0.449,3.18l0.104,3.83l-2.97,4.59l-0.293,0.28l-0.449,-0.03l-0.432,-0.44l-0.932,-1.22l-1.398,-0.33l-2.314,-1.07l-2.348,-4.4l-0.12,-0.71l0.189,-0.69l0.294,-0.28l0.777,-0.07l0.362,-0.2l0.173,-0.33l-0.95,-1.56l-2.019,1.68l-0.933,2.76l-0.138,0.45l-0.069,0.93l-2.486,-0.57l-0.432,-0.29l-0.517,-1.31l-0.259,-0.88l-0.19,-0.8l0.103,-0.57l1.45,-1.76l-0.621,-4.83l0.293,-0.93l0.518,-0.64l0.397,-0.31l1.036,-0.21l2.469,0.05l2.279,1l1.882,1.04l0.224,0.21l0.207,0.7Zm-9.566,-2.9l-1.226,1.28l0.259,0.47l0.535,0.55l0.881,3.44l-0.087,0.67l-1.433,2.12l-0.448,0.57l-0.346,0.09l-0.259,-0.04l-0.915,-0.27l-0.362,-0.23l-0.311,-0.27l-0.38,-0.49l-2.072,-3.31l-0.051,-0.66l0.103,-0.9l-0.207,-0.36l-0.38,0.02l-0.276,0.6l-0.034,0.56l0.12,0.57l0.846,2.93l0.898,1.12l0.345,0.21l0.587,0.33l2.4,3.04l0.017,0.64l-0.224,0.5l-1.951,3.19l-0.259,0.17l-0.363,-0.01l-2.088,-0.49l-0.449,-0.86l0.328,-2.26l-3.867,-3.92l-2.228,-2.42l-0.328,-0.4l-0.241,-0.46l-0.156,-0.42l-0.707,-4.42l-0.104,-0.93l0.121,-0.67l1.036,-0.21l0.259,-0.02l0.259,0.06l1.502,0.63l0.345,0.38l0.293,0.83l1.036,-0.01l1.278,-3.06l0.397,-1.16l0.639,-0.34l0.5,-0.21l5.421,2l1.675,0.87l-0.104,0.67l-0.224,0.29Zm33.884,13.87l-0.294,0l-0.518,-0.09l-3.297,-1.36l-0.466,-0.26l-0.967,-1.47l-0.19,-0.38l-0.052,-0.52l0.156,-0.74l0.224,-0.5l0.328,-0.09l0.483,0.11l4.316,1.72l1.433,0.92l0.432,0.69l-0.069,0.65l-0.294,0.51l-0.621,0.67l-0.328,0.1l-0.276,0.04Zm-49.254,-8.24l1.364,1.26l0.743,1.52l-1.071,2.31l-1.225,2.21l-0.501,0.19l-2.641,0.16l-0.933,-0.14l-0.535,-0.34l-0.276,-0.32l-0.242,-1.69l3.056,-4.66l0.501,-0.5l0.845,-0.43l0.639,0.05l0.225,0.19l0.051,0.19Zm43.273,6.27l-0.225,-0.07l-2.071,-0.85l-1.002,-0.46l-0.932,-0.52l-0.311,-0.26l-2.227,-2.09l-0.466,-0.54l-1.45,-2.69l-0.466,-4.19l-0.035,-0.52l0.035,-2.35l0.19,-0.4l1.329,-0.98l1.226,-0.47l0.397,0.07l2.123,0.73l0.536,0.48l0.31,0.12l0.259,0.04l0.449,-0.26l0.328,-0.56l0.017,-0.51l-0.241,-0.61l-0.432,-0.55l-0.328,-0.24l-1.07,-0.52l-0.225,-0.34l-0.138,-0.56l-0.103,-2.71l0.138,-0.58l0.742,-0.23l0.345,-0.22l0.328,-0.24l0.432,-0.42l0.552,-0.6l0.346,-0.5l0.19,-0.4l0.207,-0.67l0.19,-0.83l0.19,-0.54l0.207,-0.36l0.38,-0.33l1.139,-0.19l0.38,0.4l-0.121,3.05l-0.104,0.47l-0.138,0.47l-0.069,0.5l-0.034,0.84l0.017,0.54l0.069,0.5l1.209,5.76l1.415,3.63l0.898,2.49l-0.086,0.64l-0.501,0.56l-0.518,0.18l-0.915,0.05l-0.259,-0.04l-0.466,-0.12l-0.397,-0.19l-0.673,-0.48l-0.76,-0.69l-0.656,-1.05l-0.311,-0.4l-2.313,-2.3l-0.156,0.45l0,0.54l0.294,1.38l0.155,0.41l0.19,0.37l0.501,0.65l0.431,0.43l0.242,0.33l0.483,0.8l1.054,3.43l0.172,0.67l0.397,3.15l-0.293,0.5Zm4.397,-3.04l-0.259,-0.03l-2.175,-1.59l-0.691,-0.75l-0.328,-0.51l-0.121,-0.59l0.173,-0.41l0.241,-0.19l4.161,-0.8l0.225,0.36l0.276,0.8l0.138,0.84l-0.57,1.64l-0.362,0.8l-0.294,0.27l-0.414,0.16Zm-53.417,-2.28l-0.622,0l-0.535,-0.24l-1.019,-1.26l-2.089,1.1l-2.796,1.83l-1.261,-0.01l-2.952,-1.49l-0.742,-0.83l0.5,-0.71l2.797,-0.05l2.831,-1.88l1.209,-7.15l-1.813,-0.96l-0.673,0.43l-1.588,1.4l-0.777,0.34l-2.158,-0.14l-0.156,-0.95l-0.086,-1.08l-0.898,-0.38l-1.036,4.33l-0.034,1.02l-0.742,2.88l-2.228,-1.02l-0.863,-2.15l-0.846,-2.34l-0.535,-1.64l0.173,-0.41l1.208,-0.85l0.242,-3.98l-3.246,0.19l-1.053,0.77l-0.898,0.43l-0.725,0.23l-2.123,0.05l1.122,-0.91l0.708,-0.42l0.466,-0.55l-0.224,-1.68l-0.726,-0.05l-0.984,0.11l-0.759,-0.11l-0.535,-0.53l0.034,-1.66l0.328,-0.85l0.432,-0.41l1.053,-0.17l0.639,0.52l0.5,0.05l0.57,-0.42l0.777,-0.76l0.501,0.06l1.881,1.01l0.466,0.66l0.311,0.79l0.622,1.06l0.708,0.45l2.14,0.67l0.708,0.05l2.279,-0.07l2.227,-0.38l-0.034,-1.09l-0.743,0.02l-0.518,0.48l-1.674,0.14l-1.623,-0.19l-0.794,-0.12l-1.761,-0.46l-0.777,-0.54l-3.021,-4.88l-0.553,-1.59l1.071,-0.12l0.863,0.31l1.364,0.69l4.523,0.88l-0.656,-2.11l-1.053,-1.53l2.382,-0.8l1.847,0.21l2.176,0.9l0.932,4.48l-0.397,1.87l-0.449,1.59l0.777,2.33l1.467,-4.34l0.208,-1.29l-0.674,-1.54l-0.587,-1.57l1.796,0.66l1.277,1.6l1.502,3.46l2.106,-1.69l2.504,0.36l1.122,0.72l0.949,1.64l-0.103,1.16l-0.742,-0.09l-0.708,0.26l-0.449,0.85l1.036,2.76l0.828,-1.21l0.898,-1.1l2.711,1.1l0.569,0.45l2.348,3.06l-0.863,0.6l-0.432,0.12l-0.466,1.71l-0.811,0.54l-0.622,-0.07l-1.951,-0.43l-1.588,1.36l0.035,2.97l0.466,0.4l1.001,0.46l0.794,0.24l-0.103,1.94l-2.521,0.26l-2.589,2.24Zm-17.915,1.42l-1.519,-0.83l-3.021,-1.4l-0.259,-0.43l1.933,-1.78l0.915,-0.03l0.812,0.05l1.674,0.22l0.311,0.14l1.364,0.76l0.121,0.43l0.414,2.06l-0.363,0.43l-0.431,0.1l-1.951,0.28Zm-12.39,-115.391l-0.649,-2.439l0.984,-0.68l0.932,1.47l0.259,1.11l-0.5,-4.3l-0.553,-0.64l-0.604,0.4l-2.382,2.86l-0.605,0.47l-0.5,0.14l-4.506,-1.32l-1.105,-0.88l-0.587,-4.4l-1.485,-1.07l-0.57,-0.45l-0.276,-4.16l0.587,-0.98l1.07,-0.8l1.019,-0.39l5.645,-0.02l0.553,0.38l0.846,1.4l1.761,-4.89l-0.035,-3.95l0.725,-1.04l2.107,-0.65l0.794,0l1.415,0.96l0.328,1.21l0.726,0.52l0.742,-1.71l-1.502,-1.52l-1.174,-0.22l-1.001,-0.31l-1.64,-1.89l-0.07,-0.86l0.467,-0.9l0.587,-0.19l0.828,-0.19l0.639,-0.41l0.432,-0.519l0.777,-3.246l-4.558,4.505l-0.397,0.83l-0.639,2.45l-0.691,3.28l0.208,0.95l0.155,1.11l-0.259,0.7l-2.59,2.52l-0.466,0.26l-2.365,-0.27l-1.865,-2.2l-1.001,-2.52l-1.761,-3.95l-1.381,-4.747l1.847,-0.639l2.245,0.863l0.621,0.453l0.553,0.53l0.587,0.48l0.725,0.37l3.194,0.52l-1.226,-0.87l-1.243,-0.41l-2.089,-1.556l-1.071,-1.312l-4.212,-0.38l-4.471,-3.194l-5.283,-5.334l-0.104,-1.14l0.57,-1.001l0.863,-1.001l1.209,-0.864l2.313,-0.777l1.45,0.501l2.055,-0.242l1.363,1.761l0.501,1.226l1.692,1.951l5.904,2.693l1.571,0.328l0.449,0.017l0.346,-0.31l-6.509,-3.09l-0.535,0.034l-0.57,-0.259l-0.76,-0.829l-4.005,-7.199l0.242,-1.571l0.57,-0.88l1.691,0.224l1.157,0.363l2.383,2.641l5.749,2.383l0.086,-1.14l-0.328,-1.07l-2.659,-1.174l-2.21,-0.95l-4.868,-2.538l-0.673,-1.001l-0.587,-2.538l2.52,-1.45l1.295,-0.466l1.191,-0.207l0.76,0.293l1.001,-0.241l0.242,-1.174l-3.125,0.449l-2.175,0.587l-0.484,-0.139l-0.552,-1.571l-0.155,-1.916l0.155,-0.915l1.916,-1.951l3.229,-1.105l0.587,-0.172l3.435,0.828l0.432,0.812l0.535,2.158l0.656,1.122l0.898,0.449l0.725,0.224l1.605,1.658l0.639,2.244l0.276,-1.209l-0.5,-1.709l-0.604,-1.433l-0.467,-0.449l-1.864,-0.172l-0.622,-2.59l0.087,-2.158l-1.002,-0.725l-1.864,0.242l-2.555,-0.846l-0.397,-0.518l-0.277,-2.607l0.95,-5.11l0.363,-0.57l0.759,0.018l0.898,0.811l0.293,0.777l0.518,0.828l1.243,0.743l0.76,0.241l0.949,-0.259l-1.104,-0.656l-0.777,-0.189l-0.449,-0.346l-1.381,-2.279l-0.743,-6.042l0.294,-0.725l0.777,-1.053l0.431,-0.466l0.587,-0.294l0.777,-0.034l0.708,0.483l0.483,0.535l0.846,0.104l-0.069,-0.829l-1.519,-0.811l-3.695,0.414l-0.189,1.537l0.241,3.383l-1.64,3.056l-1.018,3.159l-0.242,2.089l-0.846,5.128l-0.535,0.794l-0.57,0.104l-0.622,-0.432l-2.675,-3.608l-0.57,-3.211l-0.052,-6.768l0.086,-7.406l-0.379,-1.243l-0.518,-1.191l-0.432,-1.882l0,-1.174l0.259,-0.812l1.502,-2.468l1.001,0.673l0.743,0.276l0.587,-0.138l0.966,-0.742l0.76,-0.259l2.02,0.19l1.623,0.638l8.494,7.389l5.852,5.059l7.269,6.267l0.414,0.293l1.985,0.553l-1.208,1.381l-7.044,0.207l-1.019,0.069l-1.847,4.955l-1.036,3.677l0.328,0.691l1.312,1.743l1.692,7.027l-0.483,0.69l-0.881,0.829l-0.673,0.829l-0.621,3.349l0.966,1.07l0.605,0.57l0.483,0.691l-0.104,1.156l-0.673,0.933l-0.57,1.191l-0.276,1.243l0.345,1.087l2.124,1.64l2.141,1.727l0.414,0.518l0.363,0.673l0.984,2.348l0.276,1.036l0.414,5.56l0.501,3.76l1.295,5.48l0.449,0.74l0.518,0.43l0.69,0.1l0.622,-0.15l0.776,-0.28l0.847,-0.46l0.845,-0.76l1.433,-1.96l0.484,-0.44l0.811,-0.5l2.624,-1.3l0.708,0l0.691,0.66l0.431,0.58l0.484,0.43l0.794,0.32l0.794,-0.11l0.483,-0.36l0.553,-1.09l0.535,-0.67l0.604,-0.31l0.656,-0.11l2.97,0.44l1.882,1.48l-0.156,0.95l-0.932,2.09l0.104,0.95l0.776,0.95l0.553,0.77l0.639,1.21l0.276,0.88l-0.57,6.06l-0.397,0.78l-1.277,0.16l-1.502,2.88l0.466,1.98l0.587,0.83l0.621,0.47l0.881,0.48l1.001,1.31l-0.328,1.07l-0.725,0.76l-0.466,1.06l-0.035,1.88l0.086,1.55l-0.932,3.37l-0.535,0.55l-0.76,0.57l2.728,7.2l0.76,0.43l1.226,0.21l0.656,0.31l0.5,0.33l0.622,0.46l1.174,0.97l3.142,3.58l0.431,1.05l0,1.31l0.777,3.25l5.3,0.05l11.326,0.02l19.612,0l7.959,-0.06l2.745,0l1.363,0.57l4.351,1.99l7.475,3.31l4.265,0.02l1.329,-0.02l4.938,2.06l1.018,0.45l1.364,0.98l2.624,1.97l2.486,0.41l1.934,0.3l1.795,0.32l3.436,0.94l-0.138,1.96l-0.898,-1.76l-0.759,-0.34l-4.196,-0.71l-2.935,-0.15l-0.5,0.05l-3.039,-0.59l-0.984,-0.4l-0.501,-0.34l-1.001,-0.92l-0.604,-0.5l-1.191,-0.74l-0.864,-0.4l-0.88,-0.08l-0.552,-0.02l-1.416,0.14l-4.333,1.95l-0.622,0.48l-0.311,0.67l-0.069,1.14l-0.121,2.78l-1.64,2.75l-0.604,0.79l-1.277,1.28l-0.432,0.62l-0.57,0.4l-2.607,-0.4l-0.708,-0.71l-2.537,0.57l-5.577,2.47l-0.725,0.38l-7.993,4.82l-0.777,0.07l-3.833,0.48l-3.124,0.57l-0.777,5.92l0.328,1.16l0.466,0.53l-0.017,2.97l-1.9,5.58l-0.466,0.83l-0.535,0.62l-0.397,0.88l-0.224,1.23l-0.915,6.95l0.034,1.33l0.086,1l0.277,1.37l0.379,1.05l0.328,1.35l0.19,1.17l0.121,1.54l-0.121,1.31l-0.863,5.28l-0.518,1.07l-1.208,1.52l-4.61,2.16l-1.226,0.47l-4.126,-2.11l-0.742,-0.22l-1.053,-0.14l-1.122,-0.09l-0.553,0l-0.984,-0.12l-1.588,-0.48l-3.798,-2.82l-2.003,-0.53l-2.831,-0.86l-1.588,-0.88l-4.248,-4.42l-1.467,-2.2l-1.174,-1.91l-0.587,-1.09l-0.794,-2.09l0.725,-3.49l3.418,-3.04l4.213,0.52l0.708,1.92l0.155,0.93l-0.104,1.5l-0.328,0.99l-1.571,1.07l-1.709,0.91l0.95,0.4l2.054,-0.62l0.846,-0.55l1.433,-1.07l0.155,-0.87l-0.138,-1.34l-0.224,-1.68l-0.069,-0.88l0.224,-1.31l0.587,-0.78l3.039,0l0.725,0.88l1.243,7.6l-0.294,1l-0.483,0.5l-0.777,0.66l-2.313,1.33l-0.674,0.29l-0.863,0.62l-0.017,1.19l0.224,0.21l1.209,-0.76l2.918,-1.12l0.759,-0.5l1.036,-2.08l-0.138,-2.71l-0.328,-1.98l0.155,-2.52l0.708,-2.92l6.422,-3.37l0.743,0.07l0.656,-0.01l0.759,-0.21l0.518,-0.31l0.501,-0.38l0.466,-0.52l4.92,-8.6l0.259,-1.02l-1.191,-2.15l-2.158,-0.64l-2.348,-0.16l-6.25,3.42l-5.213,3.33l-2.02,1.69l-0.397,1.11l-2.573,3.99l-1.381,0.39l-0.708,-0.05l-0.897,-0.6l-0.518,-0.68l-0.501,-0.94l-0.449,-0.8l-0.483,-0.5l-2.02,-0.71l-5.248,1.35l-0.691,0.81l1.985,-0.26l2.452,0.02l3.781,3.26l0.518,1.07l-0.294,0.76l-3.435,1.05l-0.795,-0.17l-0.949,-0.84l-1.778,-0.56l-1.192,0.63l0.622,1.07l0.898,0.39l0.518,0.02l0.759,0.4l-2.417,4.74l-0.777,0.33l-1.277,-0.41l-0.725,-1.02l-0.432,-0.5l0.207,1.55l2.055,2.42l0.673,-0.6l0.708,-0.16l2.503,3.83l0.363,1.02l-0.432,0.76l-2.365,0.38l-0.259,0.02l-0.673,-0.81l-4.8,-3.97l-3.28,-1.85l-1.882,-1.33l-0.552,-0.78l-2.59,-2.1l-0.5,-0.23l-0.743,-0.03l-0.621,-0.24l-1.675,-1.59l-2.123,-3.02l5.472,0.34l1.934,-0.41l1.312,0.2l2.365,1.96l1.744,2.93l0.552,0.57l1.071,-0.14l0.397,-2.14l-1.381,-1.24l-1.019,-1.12l0.846,-1.7l1.105,0.26l1.398,0l-1.174,-0.83l-1.674,-0.32l-0.691,0.2l-0.621,0.73l-0.639,0.21l-2.124,-1.85l0.639,-0.78l0.294,-0.41l0.535,-1.85l-1.002,-1.38l-0.742,-2.38l-0.207,-3.2l1.036,-1.33l4.817,-3.17l3.349,2.05l2.866,0.95l1.105,-0.31l2.917,-2.5l2.901,-3.42l0.345,-0.8l4.022,-0.58l2.763,1.98l1.174,0.28l1.363,0.08l1.796,-0.06l0.95,-0.13l0.707,-0.1l0.812,-0.27l3.504,-1.75l-1.053,-2.5l-0.621,-0.5l-0.967,-0.04l-0.604,0.21l-0.76,-0.02l-3.177,-0.52l-3.66,-0.82l-5.248,-0.66l-3.574,0.17l-0.863,0.19l-0.794,1.02l-0.621,1.52l-1.261,2.85l-3.09,-2.62l1.174,-1.73l0.673,-0.5l0.76,0.05l1.105,-0.59l-0.518,-0.69l-2.642,0.87l-0.517,0.44l-2.072,0.26l-3.936,-0.01l-2.676,3.33l0.431,0.5l1.761,-1.16l3.16,1.21l0.069,0.93l-1.865,2.73l-1.105,1.12l-1.623,1.44l-1.484,0.31l-0.622,0.19l-0.725,0.95l-0.604,1.05l0.794,2.52l0.656,2.73l-0.086,1.76l-0.726,1.57l-2.589,0.93l-0.155,0.14l-0.812,0.45l-1.934,0.19l-2.831,-1.19l-3.211,-3.06l3.384,-2.57l1.882,-2l-3.004,-0.44l-4.886,-3.12l1.243,-1l2.279,0.17l0.604,0.69l3.85,-0.46l-0.518,-1.26l-0.086,-1.54l3.815,-8.51l1.036,-0.59l2.106,0.4l1.295,0.39l0.742,0.19l-0.673,-0.93l-2.331,-0.52l-0.759,-0.1l-0.725,0.07l-1.865,0.38l-0.656,0.67l0.363,2.14l-0.207,0.78l-2.349,3.66l-0.932,0.04l-0.587,-0.4l-0.19,-0.81l-0.069,-1.76l-0.673,-0.4l-0.604,0.26l-2.763,2.4l-1.381,1.43l-0.897,1.52l-0.397,0.81l-2.02,-0.97l0.259,-4.95l1.312,-1.64l0.984,-0.29l0.656,0.32l0.311,-0.69l-1.174,-0.38l-0.432,-0.77l-1.243,-3.66l0.017,-1.21l0.397,-0.74l0.725,0.19l0.725,0.12l0.639,-2.13l-0.449,-3.74l-1.484,-2.63l-1.934,-2.88l-0.397,-1.07l0.19,-1.31l0.69,-0.57l0.639,0.71l0.38,1.46l2.935,4.59l0.742,0.11l1.157,-0.92l2.935,1.9l0.57,0.16l1.433,-0.31l0.552,-0.47l0.622,-1.74l1.243,-1.95l1.657,-0.88l1.795,-0.9l0.933,0.14l0.069,2.83l-0.087,1.84l1.848,2.49l1.105,0.57l0.846,-0.97l1.432,-5.59l-0.276,-1.48l-0.794,0.82l-0.777,2.13l0.035,1l-0.708,1.67l-1.64,-1.19l-0.017,-3.42l2.019,-5.12l1.468,-0.76l2.641,1.95l-0.103,2.26l0.967,1.69l0.966,0.5l0.449,0.45l1.191,2.33l0.484,1.19l-1.019,4.85l-0.828,0.99l-3.246,1.33l-4.592,2.9l0.725,0.27l1.933,-0.7l4.558,-1.82l1.329,-0.86l2.21,-2.3l0.57,-4.52l-0.363,-0.86l-1.657,-2.04l-2.434,-3.19l-0.432,-3.42l0.794,-0.74l2.832,0.44l0.638,-0.31l0.536,-0.55l0.345,-0.64l-0.294,-5.19l-0.932,-2.4l-3.729,-4.44l-1.329,-1.26l-0.639,-0.35l-1.07,-0.19l-1.157,-0.03l-2.124,-0.95l-3.383,-2.3l-0.536,-0.93l-0.984,-0.79l-1.053,0.19l-2.037,0.58l-0.673,0.82l0.328,0.69l0.967,0.41l0.604,-0.19l0.967,-0.71l2.158,0.66l2.14,1.16l3.108,2.74l3.487,3.54l0.553,0.28l2.831,0.79l0.518,0.69l-0.397,1.97l-1.485,1.71l-2.296,0.21l-1.726,-1.2l-0.605,-1.29l-4.039,-1.83l-4.886,-3.66l-1.571,-1.02l-1.036,0.14l1.398,3.8l0.812,0.5l0.949,0.19l0.674,-0.02l0.863,-0.43l0.88,0.55l0.656,0.71l0.812,1.4l-1.52,2.55l-0.569,0.38l-0.967,0.21l-1.675,0.55l2.952,-0.43l1.537,-1.26l0.898,-0.55l0.828,0.58l0.259,1.06l-0.811,0.86l-1.692,0.71l-1.502,0.76l-1.243,0.81l-0.397,1.02l-0.777,4.9l-0.552,-0.05l-0.829,-0.24l-0.846,-2.16l-0.432,-4.44l-0.172,-4.33l-0.484,-3.4l-0.379,-0.95l-1.123,-1.26l0.242,0.93l0.76,2.09l0.276,2l1.26,13.05l-0.224,1.39l-0.725,0.41l-0.794,-0.45l-4.817,-4.09l-0.484,-0.62l-0.362,-1.18l0.103,-1.52l-0.759,-2.6l-1.053,-2.9l1.225,-0.76l0.259,0.93l1.986,4.3l1.864,3.05l0.795,-0.27l-1.9,-4.2l-2.71,-6.16l0.932,-0.45l0.794,-0.55l1.105,-1.45l-3.556,1.02l-2.072,2.74l-1.519,-2.97l-0.708,-2.78l-1.571,-0.39l-1.243,-0.45l-0.57,-7.39l0.104,-0.93l0.483,-1.32l2.245,0.71l2.52,2.9l0.674,1.57l1.26,3.16l0.328,1.75l0.328,-0.23l0.155,-1.02l-2.382,-7.2l-1.227,-4.606l0.004,0.016l-0.052,0.83l-0.362,1.49l-0.156,0.39l-0.155,0.04l-1.778,-0.4l-0.242,-0.17l-0.604,-0.61l-0.518,-1.55l0.155,-0.4l0.57,-0.65l0.967,-0.93l0.414,-0.11l0.432,0.14l0.431,0.26l0.328,0.34l0.225,0.31l0.145,0.269Zm-1.622,92.791l-0.276,-0.16l-0.518,-2.02l0.276,-3.23l0.242,-0.34l0.328,0.05l3.176,2.23l0.518,0.46l-0.052,0.54l-0.207,0.38l-2.486,1.69l-0.362,0.19l-0.397,0.14l-0.242,0.07Zm9.555,-8.01l0.535,0.24l0.311,0.52l-1.744,2.36l1.571,2.23l0.173,0.62l-2.314,1.3l-0.5,-0.19l-3.298,-1.97l-3.021,-2.3l-0.38,-0.59l-0.431,-0.81l0.086,-0.43l0.414,0.02l0.881,0.97l0.811,0.62l0.518,0.36l0.414,0.17l0.259,0.05l1.019,0.09l2.089,-0.79l-0.035,-0.44l-0.224,-0.2l-0.76,-0.4l0.346,-1.57l2.814,0.07l0.276,0.02l0.19,0.05Zm1.545,-5.23l1.64,-0.31l0.294,0.1l1.795,1.21l2.78,1.97l0.276,0.46l-0.259,0.59l-0.362,0.21l-0.259,0.01l-2.797,-0.17l-6.112,-1.62l-0.224,-1.12l-0.156,-0.49l-1.691,-0.77l-0.708,-1.51l-2.832,-2.71l-0.397,0.11l-2.382,-2.37l-1.519,-1.97l-2.072,0.47l-1.036,0.55l-1.174,0.74l-5.766,-0.22l-0.57,-0.35l-0.604,-2.39l-1.813,-2.27l-0.483,-0.01l-1.537,-0.4l-1.985,-1.57l-0.207,-0.47l0.207,-0.71l0.466,-1.95l-0.673,-1.08l-0.242,-0.18l-0.622,-0.13l-1.156,-0.57l-0.346,-0.23l-1.26,-1.69l1.036,-1.57l0.311,-0.04l1.139,0.78l3.539,3.47l1.381,1.64l0.95,2.23l1.07,1.22l2.728,0.62l0.311,-0.55l1.001,-0.27l1.658,-0.31l2.572,1l3.142,1.84l1.537,1.35l1.018,0.64l1.847,0.93l1.537,0.05l0.035,-0.77l1.173,0.29l1.036,1.38l0.173,0.33l0.432,1.74l-0.242,0.49l-0.38,0.48l-0.224,0.55l0.897,2.45l0.259,0.44l0.38,0.2l0.932,-1.69l-0.259,-0.76l-0.241,-0.91l-0.242,-1.42l0.311,-0.43l0.362,-0.04l0.449,0.14l0.708,0.31l2.693,3.37l0.104,0.47l-1.347,1.19Zm-16.649,-0.71l-0.121,0.48l-1.088,1.85l-0.69,0.45l-1.537,0.5l-0.431,-0.05l-0.259,-0.18l-0.432,-0.55l-0.069,-0.45l1.346,-1.34l1.036,-0.94l1.036,-0.77l0.294,0l0.345,0.22l0.518,0.49l0.052,0.29Zm15.613,-12.17l-0.708,0.08l-0.328,-0.05l-0.829,-0.86l-0.19,-0.36l0.259,-0.54l0.414,-0.05l0.242,-0.14l-0.863,-0.57l-0.967,-0.34l-1.985,-0.18l-0.449,0.07l-2.175,0.45l-0.518,0.31l-0.259,-0.31l1.294,-1.23l3.022,-0.72l3.608,1.04l0.311,0.24l1.001,1.24l-0.311,1.81l-0.569,0.11Zm-11.892,-9.21l-0.225,-0.01l-0.345,-0.23l-3.194,-3.74l-0.207,-0.47l0.017,-0.4l0.535,-1.48l0.242,-0.31l1.416,-1.66l3.919,-3.71l1.519,-1l0.345,-0.05l0.345,0.1l0.311,0.26l0.259,0.45l1.053,2.22l-1.415,5.03l-1.364,2.98l-0.19,0.38l-0.345,0.51l-0.432,0.2l-0.414,-0.14l-0.259,0.04l-0.829,0.5l-0.742,0.53Zm1.636,-13.43l-1.018,-1.29l-0.812,-2.33l-2.106,-1.8l-1.899,-2.47l-0.19,-0.34l-0.207,-0.87l0.362,-0.53l0.777,-0.45l0.277,0.02l1.156,0.78l1.019,1.64l3.401,1.88l0.5,0.58l0.294,0.52l0.104,0.43l0.621,2.73l-0.104,0.64l-0.328,0.43l-1.053,0.59l-0.604,-0.02l-0.19,-0.14Zm-7.699,-0.03l-1.105,-0.87l-0.915,-1.77l-0.173,-3.15l0.173,-0.39l0.38,-0.3l0.276,-0.12l0.518,0.07l0.587,0.3l0.276,0.27l0.622,0.36l0.293,-0.1l-0.984,-2.16l-0.259,-0.29l-0.621,-0.48l-2.141,-0.73l-1.398,0.21l-0.398,0.14l-0.569,-0.06l-0.484,-0.22l-0.69,-0.57l-0.052,-0.52l1.657,-1.57l0.432,-0.24l0.483,-0.17l0.259,-0.02l0.363,0.21l0.311,0.24l1.933,1.67l1.623,1.68l1.019,1.19l3.729,4.59l-0.018,0.55l-1.035,0.78l-3.108,1.62l-0.794,0.04l-0.19,-0.19Zm-14.911,-3.01l-1.502,-1.52l-0.259,-2.02l4.282,-1.08l0.569,0.15l0.121,0.42l-1.761,3.35l-0.742,0.5l-0.483,0.19l-0.225,0.01Zm25.3,-3.74l-0.138,-0.35l-0.673,-1.24l-1.123,-1.73l-1.692,-1.79l-0.466,-0.36l-1.484,-1.04l-3.16,-1.9l-0.345,-0.22l-0.432,-0.38l-0.034,-1.4l0.449,-1.61l0.863,-0.65l0.311,0.06l0.466,0.37l4.16,3.81l1.278,1.23l0.881,0.9l0.224,0.45l1.26,2.88l0.535,2.17l0.018,0.64l-0.138,0.73l-0.38,-0.02l-0.38,-0.55Zm-25.676,-1.43l-0.432,-0.12l-0.224,-0.33l-0.104,-0.42l0.035,-0.83l0.328,-0.86l4.333,-2.55l0.311,0.79l-2.055,3.54l-1.519,0.66l-0.432,0.1l-0.241,0.02Zm-2.606,-1.89l-0.155,-0.07l-0.501,-0.94l2.521,-8.57l0.19,-0.53l0.518,-1.19l0.276,-0.59l0.276,-0.42l0.311,-0.03l3.194,0.45l-0.104,0.6l-4.04,8.95l-0.259,0.31l-2.054,1.9l-0.173,0.13Zm-1.939,-0.93l-0.242,0l-0.431,-0.81l-1.796,-5.06l2.141,-5.78l0.414,-0.57l0.743,0.81l0.086,0.41l-0.293,0.56l0.051,0.43l0.605,0.12l0.811,-0.12l0.518,-0.17l0.57,-0.7l-0.743,-4.76l-0.725,-1.97l-0.656,-0.33l-0.345,-0.32l-0.052,-0.44l0.276,-0.43l0.466,-0.34l0.346,-0.18l0.5,-0.12l1.554,0.59l0.397,0.54l0.104,0.41l0.362,3.5l0.121,1.3l-0.38,1.66l-1.225,4.85l-1.295,4.04l-1.226,2.17l-0.362,0.47l-0.294,0.24Zm5.835,-2.11l0.224,-0.88l0.156,-0.43l0.276,-0.41l3.781,-3.82l0.863,0.54l0.483,0.62l-0.017,1.17l-0.276,0.8l-1.416,0.96l-2.918,1.82l-1.07,0.53l-0.259,-0.22l0.173,-0.68Zm39.337,-0.53l-0.104,-0.83l0.139,-0.74l0.172,-0.54l0.173,-0.39l1.036,-2.21l0.224,-0.18l1.968,-1l1.951,-0.72l-0.121,1.28l-2.382,4.98l-0.674,0.28l-1.381,0.48l-0.518,0.09l-0.259,-0.16l-0.224,-0.34Zm-25.542,-3.94l-1.675,-0.31l-3.505,-2.14l-1.312,-1.67l-1.847,-5.41l3.177,1.07l4.954,4.06l2.003,1.38l-0.034,0.43l-1.036,2.21l-0.259,0.3l-0.466,0.08Zm7.248,-2l-1.968,-0.38l-0.276,-0.27l-0.207,-1.85l0.742,-1.5l0.311,-0.24l0.311,0.05l0.276,0.26l0.242,0.29l0.466,0.6l1.07,1.76l-0.103,0.57l-0.518,0.51l-0.346,0.2Zm-30.271,-0.1l-0.207,-0.21l-0.121,-0.4l0.656,-3.73l0.449,-1.57l0.156,-0.41l0.379,-0.47l0.536,-0.41l0.483,-0.17l0.622,0.12l0.517,0.51l0.087,0.63l-0.225,1.48l-0.431,1.61l-0.38,1.19l-0.242,0.46l-0.276,0.3l-1.088,0.95l-0.569,0.2l-0.346,-0.08Zm32.054,-3.2l-0.242,0l-0.587,-0.12l-0.449,-0.26l-0.189,-0.34l-2.107,-4.35l-0.034,-0.78l0.19,-0.36l0.569,-0.04l1.623,0.88l1.278,1.7l0.725,1.65l-0.035,0.49l-0.742,1.53Zm-5.831,-0.69l-0.553,-0.15l-0.362,-0.19l-3.419,-2.54l-0.518,-0.45l-0.397,-0.53l-0.034,-0.73l0.19,-0.36l1.139,-0.24l1.071,0.01l1.277,-2.19l-0.397,-2.38l0.155,-0.4l0.225,-0.17l0.362,0.07l0.397,0.36l3.263,8.27l-0.017,0.62l-0.345,0.42l-0.311,0.22l-0.621,0.33l-0.518,0.14l-0.259,0.01l-0.328,-0.12Zm-31.106,-6.63l-0.259,0l-0.19,-0.58l0.069,-3.08l1.019,-1.1l1.053,-1.68l0.225,-1.96l0.069,-2.77l-0.035,-0.65l0.052,-0.55l0.121,-0.45l0.19,-0.37l1.139,-1.03l0.397,-0.28l0.311,-0.01l3.09,2.74l0.207,1.19l-0.086,1.14l-0.121,0.45l-0.38,0.29l-0.328,0l-0.362,-0.32l-0.449,-0.09l-0.242,0.17l-1.519,3.45l0.104,0.68l0.034,0.71l-0.052,0.63l-0.172,0.56l-0.294,0.69l-3.315,2.12l-0.276,0.1Zm17.226,-8.84l-0.57,0l-0.311,-0.24l-0.863,-2.88l-1.001,0.53l-0.518,1.18l-1.07,2.3l-0.346,0.18l-1.053,0.23l-0.932,0.07l-1.347,0.17l-0.431,0.24l-0.95,0.85l-0.224,-0.02l-0.553,-0.38l0.138,-1.02l1.727,-1.36l1.277,-0.57l0.518,-0.28l1.813,-2l0.207,-0.48l-0.259,-0.07l-2.641,1.48l-0.518,0.42l-0.501,-0.18l-0.276,-0.44l-0.104,-0.54l0.087,-0.47l0.207,-0.36l3.919,-4.21l1.916,-0.55l2.504,-0.11l1.104,1.32l0.19,0.34l0.622,1.74l-0.19,3.25l-0.311,0.54l-1.018,1.17l-0.242,0.15Zm11.148,1.65l-1.485,-0.85l-0.984,-0.71l-0.294,-0.36l-0.345,-2.09l-0.069,-1.19l0.103,-0.73l1.9,-0.67l0.328,0.21l1.294,3.54l0.139,0.39l0.051,2.09l-0.138,0.43l-0.311,0.07l-0.189,-0.13Zm1.594,-2.9l-0.293,-0.21l-0.294,-0.4l-0.431,-2.64l0.017,-0.4l0.276,-1.88l0.19,-0.36l0.276,-0.14l0.467,-0.05l1.795,0.29l0.622,0.42l0.155,0.55l0.311,2l-0.069,0.9l-2.331,1.98l-0.691,-0.06Zm-5.024,-6.24l-1.019,-5.19l-0.345,-2.2l-0.259,-3.67l0.173,-0.38l0.638,-0.04l0.484,1.04l1.467,4.74l0.863,3.51l0.19,1.43l-1.398,1.75l-0.345,0.19l-0.346,-0.04l-0.19,-0.34l0.052,-0.66l0.035,-0.14Zm-3.528,-0.46l-3.281,-1.58l-0.345,-0.32l-0.725,-2.13l0.104,-1.1l2.607,-1.92l0.414,-0.05l0.276,0.14l0.294,0.5l1.519,3.16l0.138,0.38l0.069,0.45l0,1.08l-0.587,1.37l-0.311,0.07l-0.172,-0.05Zm-7.116,-3.7l-4.04,-1.93l-1.847,-3.35l-0.104,-0.42l0,-0.62l0.104,-0.6l0.656,-1.73l0.293,-0.22l1.416,0.12l2.866,0.76l1.364,0.55l1.847,-1.02l0.138,-3.05l-0.069,-0.76l-0.242,-0.56l-0.656,-0.69l-0.293,-0.13l-0.415,-0.26l-0.155,-0.37l0.121,-0.41l0.535,-0.33l0.881,0.21l1.691,0.79l1.537,1.04l1.968,1.98l0.207,0.51l0.104,0.65l0.621,6.35l-0.5,2.25l-0.259,0.29l-0.311,-0.15l-0.104,-0.78l-0.379,-1.4l-0.691,-1.05l-0.38,-0.16l-0.276,0.09l-2.797,1.69l-0.483,1.62l-0.19,0.33l-2.02,0.71l-0.138,0.05Zm0.483,-8.6l-1.968,-0.17l-0.984,-0.29l-2.59,-0.92l-0.31,-0.48l-0.622,-2.69l0.121,-1.32l0.138,-0.43l1.485,-1.91l1.709,-0.61l0.363,0.12l1.519,1.45l2.02,4.49l0.052,0.45l-0.259,1.45l-0.346,0.78l-0.328,0.08Zm3.376,-14.58l-0.363,0l-2.607,-1.35l1.468,-1.347l0.31,-0.242l0.794,-0.517l0.449,-0.19l0.328,0.051l4.109,2.725l2.193,5.04l0.915,2.18l1.364,3.54l0.121,0.78l-0.052,0.91l-0.294,1.26l-0.242,0.17l-0.207,0.06l-0.656,-1.8l-0.293,-0.36l-0.535,-0.4l-1.105,0.59l-0.121,0.41l-2.124,-0.81l-2.434,-1.95l-0.242,-0.29l-1.174,-2.63l-0.189,-0.57l-0.121,-0.76l0.103,-0.45l1.848,-1.79l1.726,-1.78l-1.847,-0.78l-0.259,-0.01l-0.863,0.31Zm-12.464,11.01l-0.311,-0.35l-0.19,-0.34l-0.587,-1.73l-0.052,-0.7l0.812,-2.35l0.328,-0.19l1.864,0.07l0.207,0.31l0.07,0.55l-0.19,5.11l-0.294,0.22l-0.794,-0.08l-0.863,-0.52Zm-6.573,-0.24l-2.382,-0.66l-0.501,-0.2l-0.259,-0.3l-1.433,-3.98l0.208,-0.49l1.122,-1.16l0.794,-0.5l0.345,-0.03l0.363,0.07l0.621,0.43l0.138,-1.1l-0.759,-1.83l-0.708,-0.61l-0.846,-0.6l0.052,-0.54l1.174,-1.069l0.552,-0.069l5.007,1.108l2.123,0.12l0.242,0.26l-0.155,0.51l-2.452,3.25l-0.397,0.1l-0.276,-0.03l-0.449,-0.12l-0.38,-0.17l-0.431,-0.38l-0.069,1.08l0.103,2.51l0.104,2.85l-0.397,1.22l-0.432,0.3l-0.397,0.13l-0.225,-0.1Zm14.739,-11.29l-0.466,0l-0.535,-0.17l-0.173,-0.297l0.76,-3.694l1.381,-1.053l0.276,-0.104l0.449,0.017l1.485,0.173l1.536,0.501l0.069,0.397l-0.345,0.604l-2.054,1.795l-2.02,1.671l-0.363,0.16Zm-15.213,-11.776l-0.155,0.311l0.362,0.673l0.363,0.311l1.036,0.552l1.968,0.484l1.312,-0.207l-0.087,-1.882l-0.276,-1.174l-1.692,-0.535l-1.847,-1.192l-1.951,-1.657l-0.431,-1.381l2.002,-1.588l0.415,-0.052l3.884,0.967l0.294,0.241l3.228,3.937l-1.209,1.191l-0.362,0.431l-0.19,0.397l1.053,0.052l4.04,-0.984l0.431,-0.967l-0.241,-0.448l1.036,-0.467l0.362,0.432l0.242,0.829l-0.069,1.295l-0.432,1.208l-4.713,2.78l-0.345,0.189l-0.95,0.311l-0.518,0.812l-3.004,4.039l-0.31,0.363l-0.553,0.207l-1.795,-0.138l-0.259,-0.104l-0.104,-0.362l0,-0.57l0.276,-0.621l0.864,-0.553l0.69,-0.863l1.088,-1.588l-0.345,-0.328l-1.658,0.466l-1.208,0.794l-2.504,1.088l-0.328,0l-0.259,-0.259l0.018,-0.622l0.328,-2.676l0.604,-2.123l0.656,-1.865l0.19,-0.501l0.293,-0.379l0.328,-0.173l0.449,-0.034l0.415,0.155l1.64,0.69l0.103,0.38l-0.259,0.415l-0.241,0.155l-0.691,0.138l-0.984,0Zm14.381,-5.265l-0.293,-0.069l-1.848,-1.035l-0.483,-0.622l0.69,-1.329l0.76,-0.708l1.554,-1.036l0.639,-0.276l0.535,0.362l0.846,0.587l-1.174,-1.588l-0.656,-0.138l-0.708,0.311l-2.02,1.657l-0.846,0.173l-0.621,-1.088l0.155,-1.795l0.483,-3.557l-0.863,-3.884l0.863,-5.628l1.019,-1.071l1.45,-1.174l3.159,-4.402l-0.966,0.345l-1.502,2.003l-2.728,3.211l-1.968,1.312l-0.38,-0.777l-0.19,-1.536l-0.863,1.105l-0.086,1.035l0.034,1.934l0.052,1.45l0.414,0.967l0.622,0.863l-0.535,5.007l-0.76,3.435l-0.829,-0.19l-2.279,-1.726l-1.778,-3.591l-1.985,-4.592l0.587,-2.227l-0.484,-2.659l-0.846,-1.536l-1.035,-1.071l-0.846,0.397l-0.76,0.449l-0.604,-2.02l-0.121,-1.157l-0.035,-2.106l0.933,-1.191l0.552,-0.207l0.535,0.121l1.295,2.313l0.294,1.019l0.88,1.847l1.968,2.555l0.708,0.501l0.207,0.069l0.035,-0.311l-0.915,-1.623l-0.881,-1.226l-0.449,-0.587l-0.518,-0.828l-1.053,-2.504l0.087,-1.795l1.156,-0.293l0.536,0.638l1.329,2.21l0.76,0.259l2.089,-2.849l0.259,-0.725l-0.57,-1.553l0.828,0.621l1.969,2.417l1.432,1.899l0.708,-1.726l1.52,-7.268l-1.537,-1.83l-0.898,-0.95l-0.552,-0.38l-0.501,-0.828l-1.329,-2.987l-0.915,-2.555l0.293,-1.64l1.779,-1.347l3.366,-2.348l2.417,-0.621l4.92,1.174l0.432,1.519l0.604,5.542l0.587,1.64l0.104,0.777l-0.19,4.678l0.777,4.04l0.121,0.811l-0.018,3.194l-0.656,4.575l-0.466,1.727l-0.587,1.018l-0.224,1.45l0.569,1.692l-1.225,1.347l-1.209,2.607l0.069,1.105l1.623,-1.658l-0.104,-0.742l0.07,-0.794l1.536,-0.328l0.604,0.708l0.57,1.208l0.138,2.383l-1.26,7.337l-0.328,0.604l-1.554,1.899l-2.106,1.882l-0.777,0.224l-2.607,0.069Zm-9.947,-5.75l-0.415,-0.725l-1.415,-1.726l-0.587,-0.207l0.207,1.156l0.19,0.691l0.017,0.397l-0.328,0.173l-0.587,-0.225l-0.777,-0.794l-0.466,-0.57l-0.639,-1.277l-0.017,-0.466l0.104,-0.466l-1.399,-1.088l-2.745,2.624l-0.483,-0.19l-0.673,-1.536l-0.121,-0.38l-0.277,-4.627l1.002,-1.329l4.402,-0.415l0.294,0.087l0.293,0.241l0.363,0.432l0.897,1.295l2.711,5.559l0.121,0.38l0.5,2.745l-0.172,0.241Zm18.255,-10.996l-0.242,-1.468l-0.276,-3.418l0.173,-1.502l0.12,-0.587l0.294,-0.121l1.467,1.295l0.622,0.587l0.242,0.397l1.087,2.348l-0.121,0.345l-3.038,2.641l-0.328,-0.517Zm-12.882,-12.673l-2.296,-2.728l-3.626,-1.226l-1.105,-0.759l0.052,-0.622l0.225,-0.5l0.673,-1.209l0.328,-0.466l1.605,-2.037l3.557,0.224l0.656,0.518l1.347,1.52l0.103,1.329l-0.017,0.483l-0.881,6.198l-0.345,-0.276l-0.276,-0.449Zm-13.547,-0.224l-0.225,-0.034l-2.745,-1.502l-0.379,-0.277l-0.139,-0.362l1.347,-2.676l1.312,-0.898l0.345,-0.086l0.467,0.224l1.243,-1.174l0.69,-1.881l1.157,-1.502l0.431,-0.346l0.432,-0.19l0.294,0.104l0.362,0.881l0.932,2.658l0.104,0.518l-0.483,1.001l-0.415,0.639l-0.224,0.276l-3.505,3.816l-1.001,0.811Zm5.98,-13.549l-1.337,-4.078l0.795,-0.052l1.225,0.397l0.363,0.173l0.69,0.362l0.829,0.518l0.829,0.622l0.293,0.328l0.207,0.293l0.346,0.656l0.121,0.38l0.448,1.882l-0.069,0.431l-0.207,0.328l-2.503,1.071l-0.432,0.017l-0.414,-0.155l-0.125,-0.268l0.626,1.718l0,0.466l-0.932,1.018l-0.276,0.225l-0.173,0.086l-1.364,-4.23l-0.224,-0.535l-2.452,1.226l-0.794,1.536l-0.207,0.311l-0.363,0.294l-0.535,0.069l-3.435,-2.693l-0.173,-0.328l-0.138,-0.346l-0.087,-0.638l0,-0.449l0.052,-0.518l0.087,-0.449l0.431,-1.191l0.276,-0.38l1.899,-0.639l4.317,0.294l0.397,0.138l0.932,0.397l0.293,0.241l0.518,0.743l0.266,0.729Z" style="fill:#808080;"/>

    <path id="XI" d="M103.815,790.957l-0.915,0.363l-1.294,0.69l-0.501,0.19l-0.604,0.104l-0.484,-0.19l-0.5,-0.242l-0.518,-0.207l-1.399,-0.311l-0.587,0.277l-0.449,0.759l-0.673,0.259l-2.71,-0.328l-0.553,-0.242l-0.501,-0.241l-0.621,-0.346l-0.691,-0.172l-0.69,0.431l-0.156,0.708l0.363,3.954l3.246,0.708l3.142,0.293l1.623,0.224l3.884,1.33l0.829,0.828l1.26,2.642l4.143,5.404l0.76,2.572l-4.143,6.008l-3.401,1.571l-0.57,-0.035l-0.501,0.087l-0.552,0.138l-0.984,0.379l-0.933,0.691l-0.776,3.367l-0.259,2.589l0.949,4.213l0.725,0.448l0.743,0.242l1.104,0.518l0.501,0.708l0.604,2.59l-0.846,0.707l-0.155,0.087l-0.518,0.466l-0.828,1.122l-0.518,0.846l-0.484,1.001l-0.621,0.725l-0.656,0.294l-0.76,0.172l-0.656,0.07l-1.243,0.587l1.64,1.829l0.846,0.311l0.829,0.415l0.5,0.897l0.138,0.864l0.398,5.645l0.863,2.141l0.466,1.691l0.103,4.075l-0.155,1.122l-0.328,0.673l-3.125,2.97l-0.897,0.38l-1.658,0.12l-0.535,0.57l-0.915,7.821l2.054,2.917l0.743,0.864l0.241,1.191l-0.379,1.657l-0.363,0.518l-3.297,1.606l-1.571,2.727l-1.899,2.107l-0.864,0.276l-0.88,-0.294l-0.656,0.018l-0.898,0.328l-0.501,0.224l-0.535,0.328l-0.362,0.535l-0.225,1.019l0.432,0.431l0.829,0.57l-0.518,3.28l-0.242,0.794l-0.328,0.691l-1.26,2.003l-0.605,1.053l-0.673,1.536l-1.951,5.559l0.087,0.95l0.397,0.725l0.897,1.001l0.691,0.466l1.053,0.259l2.089,2.573l0.535,4.108l0.207,5.784l-3.297,2.123l-1.588,0.639l-1.623,0.898l-0.518,0.362l-0.432,0.605l-0.207,0.777l0.587,2.606l0.155,0.829l0.311,2.383l0.225,2.952l0,1.692l-0.225,0.846l-0.639,0.932l-2.986,2.952l-0.691,0.604l-0.449,0.311l-0.639,0.363l-0.725,0.293l-1.122,0.224l-0.967,-0.051l-0.483,0.138l-0.88,0.38l-0.76,0.518l-0.587,0.742l-1.744,2.589l-2.434,5.767l0.052,0.794l0.172,0.362l-0.414,-0.293l-7.268,-6.267l-5.853,-5.058l-8.494,-7.389l-0.069,-0.346l-1.191,-0.759l-1.347,-0.276l-0.673,0.034l-0.898,0.345l-0.518,0.242l-0.535,0.224l-0.898,-0.069l-1.415,-1.864l-0.639,-2.417l1.105,-1.606l2.417,-2.503l1.295,-0.898l1.26,0.76l2.538,1.864l0.483,-0.518l0.156,-4.436l-2.176,-0.708l-0.638,-0.829l-0.432,-0.431l-0.552,-0.104l-1.399,-0.207l0.622,-0.656l2.158,-0.518l-3.574,-1.364l-3.297,-2.987l-2.228,-2.572l-2.296,-1.692l-0.932,-0.017l-0.639,-0.276l-0.259,-1.727l0.622,-1.07l2.589,-1.588l2.745,1.122l1.606,1.277l0.501,0.863l0.345,0.76l0.449,1.381l0.483,3.108l1.519,1.571l0.743,-0.225l-1.882,-4.678l-1.502,-2.711l-0.138,-0.708l0.639,-0.362l2.538,-0.104l3.021,0.121l0.621,0.449l0.76,0.932l1.381,0.535l2.59,-0.034l2.106,-0.622l4.385,3.954l0.086,1.761l0.881,2.227l0.345,-1.364l1.157,-1.208l1.191,0.103l0.57,0.207l0.639,0.415l1.104,0.069l1.192,-1.088l0.397,-0.501l0.19,-1.001l0.069,-1.226l-0.328,-0.811l-0.19,1.968l-0.466,0.691l-1.002,0.777l-0.483,0.103l-0.639,-0.276l-2.106,-1.381l-2.279,-2.642l-1.623,-2.399l-0.224,-2.78l2.054,0l0.207,1.174l0.812,1.07l0.449,0.311l0.535,0.242l1.243,0.345l5.162,0.311l-1.07,-0.915l-1.71,-0.535l-0.846,-0.035l-0.638,0.087l-0.864,0.224l-0.932,-0.173l-1.07,-0.794l-4.851,-5.99l-0.726,-1.83l0.139,-0.95l0.5,-0.742l0.76,-0.76l0.708,-1.053l-0.466,-2.4l-1.209,-1.295l-1.122,2.314l0.949,0.69l0.139,0.812l-1.054,5.455l-0.483,0.535l-0.604,0.397l-2.918,1.278l-1.985,-0.397l-0.466,-0.242l-0.622,-1.536l-0.777,-0.138l-1.208,-0.052l-4.126,-0.846l-1.951,-0.449l-2.107,0.604l-0.621,0.363l-1.191,0.207l-1.761,-0.276l-0.674,-0.242l-1.657,-0.863l-0.673,-1.088l3.366,-5.11l1.071,-0.725l0.5,-0.086l2.124,0.224l0.673,0.242l1.347,1.139l0.552,1.865l0.863,2.313l1.002,1.191l0.863,0.432l0.915,0.121l0.587,-0.259l-0.691,0.017l-1.243,-0.397l-0.673,-0.708l-0.397,-1.381l1.019,-1.744l2.192,-0.569l1.295,0.552l0.639,0l1.053,-0.449l-0.38,-2.917l-1.692,0.88l-0.898,0.932l-2.883,0.622l-0.483,-0.121l-5.197,-5.455l-0.276,-0.674l1.347,-2.434l2.538,-2.538l0.552,-1.122l0.345,-0.794l0.328,-0.846l3.091,-0.501l0.518,0.277l0.241,1.001l0.035,1.243l1.156,2.365l0.208,0.207l-0.208,-0.518l-0.673,-2.158l0,-0.915l0.242,-1.208l0.311,-0.587l1.795,-1.761l2.642,-4.143l-1.882,-1.882l-0.553,-0.242l-0.552,-0.052l-0.484,0.259l-0.725,0.449l-0.725,-0.242l-2.676,-4.126l-0.431,-2.123l-0.035,-0.881l-1.813,-0.759l-6.853,0.69l-0.087,2.02l0.76,-0.19l1.001,-0.034l2.78,0.846l-0.294,0.966l-0.69,0.553l-0.656,0.034l-1.554,-0.19l-1.934,-0.863l-5.921,-2.831l-2.97,-1.502l-1.64,-3.349l-0.069,-1.036l0.328,-0.829l1.329,-1.692l1.71,-1.743l-0.121,-2.383l-0.553,0.898l-0.397,1.139l-2.4,2.625l-0.932,0.776l-1.692,1.105l-3.988,1.14l-1.001,-0.225l-0.984,-0.086l-1.796,0.57l-1.605,0.777l-0.674,0.552l-1.346,2.279l0.5,0.552l1.192,-1.001l2.693,-1.847l0.673,0.052l0.656,0.414l1.899,5.852l-0.224,0.898l-1.502,1.071l-1.329,0.587l-0.518,0.207l-0.208,0.034l-0.241,-0.034l-1.502,-0.501l-1.813,-2.175l-1.692,-3.125l-0.172,-2.434l0.31,-3.246l1.537,-2.296l0.483,-0.086l0.604,0.051l0.795,0.121l1.139,-0.604l3.056,-2.693l-0.173,-1.243l1.122,-1.312l0.587,-0.535l1.64,-0.881l1.088,1.019l0.052,0.431l0.103,-2.123l0.38,-1.727l2.728,-3.004l1.019,-0.103l2.209,0.086l3.315,-3.625l0.812,-1.968l1.605,-4.713l0.846,-2.884l0.363,-0.5l5.352,-0.673l2.175,-0.536l0.829,0.294l0.466,1.226l1.277,-0.864l2.642,-0.414l0.483,0.38l0.622,0.915l1.294,3.884l-0.673,3.712l-0.362,1.019l-0.57,1.07l-0.535,0.57l-0.415,0.397l0.553,-0.069l1.553,-1.278l0.467,-1.847l-0.052,-0.742l-0.207,-0.777l0.31,-0.656l1.917,1.881l0.172,0.76l-0.069,1.019l-0.328,0.932l-0.328,0.552l-0.638,0.708l-1.226,1.088l-1.295,0.759l-1.623,0.76l-2.883,0.863l-0.76,0.069l-0.742,-0.328l-1.07,-0.794l-0.587,-0.518l-1.088,-0.725l2.054,2.124l0.553,0.431l0.466,0.294l0.656,0.034l2.434,-0.639l1.951,-0.569l0.777,-0.432l1.278,-0.621l0.587,-0.121l1.018,3.263l2.555,1.692l0.708,0.31l0.225,0.035l0.258,-0.363l-0.673,-1.018l-0.604,-0.397l-0.794,-0.57l-1.986,-2.4l0.812,-1.951l0.57,-0.535l1.674,-0.155l3.194,3.625l-0.104,1.951l-0.241,1.312l-0.363,1.036l-0.414,0.846l-1.761,2.21l-0.777,0.828l-2.02,3.108l2.003,1.536l0.932,0.035l0.691,-0.414l0.379,-0.501l1.295,-2.866l0.311,-0.811l0.552,-1.899l4.213,-5.249l0.967,-2.969l2.624,-4.057l-0.432,-0.397l-2.365,3.349l-1.001,1.744l-0.432,1.191l-0.742,1.502l-0.656,0.811l-0.829,0.294l-0.086,-1.571l0.172,-0.725l0.846,-1.813l0.38,-1.381l0.294,-1.502l0.069,-1.174l-0.622,-2.106l-0.5,-1.554l3.003,-5.991l2.504,-2.9l0.466,-0.501l0.777,-0.673l0.656,-0.293l0.501,-0.07l1.243,0l1.363,0.156l0.777,-0.156l0.518,-0.552l-3.366,-1.139l-0.95,0.103l-1.053,0.363l-0.846,0.708l-0.69,1.294l-0.346,0.518l-1.968,1.899l-0.501,0.121l0.242,-3.228l1.364,-8.063l2.883,-2.71l2.521,-1.83l1.951,-0.829l0.759,0.725l0.173,1.105l0.759,0.794l1.036,0.898l2.176,1.606l1.571,0.552l2.02,0.225l0.379,-0.087l0.795,-1.674l-0.259,-0.691l-1.502,-0.311l-0.536,0.553l-0.656,0.103l-2.451,-1.156l-1.312,-1.571l-1.174,-1.226l-1.951,-1.571l-0.794,-0.311l-0.535,0.156l-0.726,0.828l-0.466,0.639l-0.915,0.121l-1.156,-0.138l-0.605,-0.138l-0.448,-0.397l-0.104,-0.795l0.363,-1.795l0.621,-0.155l1.485,-0.07l0.483,-0.224l0.881,-1.398l-1.692,-2.538l-0.708,-1.502l0.173,-1.26l0.535,-0.915l0.725,-0.328l0.5,-0.052l1.537,0.345l0.76,0l2.175,-0.777l4.92,-2.745l1.33,-1.156l2.986,-2.711l0.967,-2.054l0.725,-1.865l2.055,-5.714l0.155,-3.229l-1.347,1.243l-1.95,1.416l-2.573,-1.968l-1.968,-1.778l0,-0.967l-2.279,-1.071l-1.571,-0.5l-0.777,-0.104l-1.018,-0.207l-0.674,-0.397l-2.399,-2.538l-0.173,-1.07l0.242,-1.088l1.692,-1.588l1.795,-1.537l0.017,-1.294l0.846,-1.796l2.072,-4.178l0.639,0.017l1.105,-0.276l2.468,-0.846l-0.155,-0.932l1.561,0.033l0.459,0.364l0.09,0.023l0.014,0.012l1.536,0.397l4.748,0.811l0.345,-1.346l0.811,-1.209l1.053,-1.088l0.807,-0.566l1.075,0.428l0.121,1.433l1.882,3.142l0.518,0.225l0.031,0.003l0.073,0.031l1.042,0.099l0.684,0.471l0.811,1.036l0.449,0.915l0.19,1.329l0.097,-0.01l0.007,0.045l3.435,-0.38l0.346,-1.364l3.452,-1.692l0.801,-0.033l1.772,0.827l-0.021,-0.024l0.124,0.059l1.226,1.674l0.052,0.743l-0.225,0.621l-2.244,3.488l-0.794,0.846l-0.95,2.675l0.432,0.95l0.155,0.863l-0.086,3.85l-1.122,0.812l-0.259,0.69l0.639,0.95l1.208,0.276l3.746,0.069l1.986,0l1.588,-0.259l1.951,-0.069l5.041,1.018l0.829,0.726l1.295,2.883l-0.311,1.156l-0.57,0.622l-1.105,0.173l-1.036,2.451l0.104,0.863l0.173,0.984l-0.138,1.019l-1.278,1.778l-0.673,0.19l-0.846,0l-0.743,-0.242l-0.638,-0.328l-1.157,-0.88l-0.708,-0.501l-0.501,-0.121l-0.656,0Zm-88.385,146.399l-0.173,-0.086l-2.659,-1.726l-0.069,-0.57l1.485,-1.951l2.59,-2.969l0.328,-0.069l0.172,0.448l0.087,0.398l0.103,0.621l-0.017,0.483l-0.052,0.518l-0.639,2.711l-0.604,1.692l-0.259,0.414l-0.293,0.086Zm-11.89,-1.398l-0.224,-0.035l-0.294,-0.138l-0.38,-0.431l-0.121,-0.535l0.173,-2.262l0.587,-0.069l1.105,0.501l1.105,0.276l0.483,0.069l0.397,-0.086l0.277,-0.225l1.467,-1.347l1.916,-1.691l1.157,0.811l0.345,1.001l0.104,0.397l0.052,0.536l-0.484,0.725l-0.414,0.345l-4.247,1.571l-3.004,0.587Zm14.942,-1.951l-0.587,-0.051l-0.328,-0.259l-0.035,-0.484l0.881,-2.175l0.414,-0.57l2.089,0.017l1.226,0.173l0.725,0.363l-2.244,2.158l-0.415,0.345l-0.328,0.173l-0.742,0.241l-0.656,0.069Zm-12.518,-11.79l-0.501,0l-0.328,-0.087l-0.466,-0.31l-0.172,-0.328l-0.052,-0.432l0.121,-0.432l0.483,-0.414l0.449,-0.311l0.69,-0.293l0.881,-0.069l0.621,-0.087l0.38,-0.12l0.484,-0.259l0.397,-0.363l0.414,-0.622l0.294,-0.586l-0.328,-0.104l-1.14,0.69l-3.246,0.398l-0.276,-0.432l-0.898,-7.993l0.156,-0.415l1.018,-1.294l0.708,-0.553l3.574,-1.001l0.432,0.086l0.293,0.345l1.502,4.731l0.173,0.639l0.172,2.158l0.881,2.831l0.587,1.623l0.708,0.811l0.897,1.588l1.278,3.643l0.276,3.194l-0.172,0.691l-0.208,0.328l-2.796,2.883l-0.294,0.207l-0.587,0.172l-1.105,-2.658l-0.362,-1.796l-0.536,-3.504l0.07,-0.587l0.535,-1.554l-2.486,-1.485l-1.571,0.812l-0.363,0.12l-0.587,0.139Zm-0.408,7.906l-0.346,0l-1.674,-0.19l-1.157,-0.587l-0.483,-1.105l0.466,-3.954l0.725,-1.312l0.483,-0.12l5.231,-0.501l1.191,0.241l0.139,0.536l0.483,5.231l-0.121,0.397l-1.139,1.036l-0.553,0.466l-1.571,1.226l-0.742,0.517l-0.328,0.173l-0.38,0.121l-0.742,0.086l-0.881,-0.069l-0.483,-0.19l-0.19,-0.172l0.639,-0.881l0.759,0.156l0.691,-0.208l0.38,-0.086l0.656,-0.345l0.276,-0.225l0.466,-0.569l0.138,-0.501l-0.224,-0.224l-0.449,0.431l-0.415,0.363l-0.328,0.172l-0.517,0.087Zm18.572,-0.208l-0.414,0.207l-0.38,0.121l-0.466,0.017l-2.866,-0.604l-1.588,-0.915l-0.346,-0.293l-0.138,-0.363l-0.397,-2.71l0.104,-0.691l0.224,-0.432l0.207,-0.31l1.761,-1.968l0.397,-0.225l1.606,-0.19l0.294,0.069l0.207,0.501l0.518,0.846l0.103,0.501l0.207,0.414l1.088,0.915l1.174,-1.45l0.069,-0.397l-0.311,-0.449l-0.241,-0.156l-0.708,-0.155l-0.846,-1.606l-0.19,-0.431l-0.294,-1.381l0,-0.466l0.052,-0.501l1.053,-5.456l0.225,-0.569l0.19,-0.328l0.31,-0.311l0.294,0.155l0.466,0.656l0.173,0.328l0.103,0.605l0,0.69l0.138,1.433l0.294,2.59l2.244,4.005l-0.5,1.744l0,2.141l0.12,1.657l0.156,0.639l1.208,1.64l0.346,0.086l0.224,-0.293l0,-0.363l-0.138,-0.362l0.017,-0.432l0.311,-0.138l0.259,0.121l0.293,0.224l0.225,0.276l0.052,0.535l-0.19,1.036l-0.156,0.656l-0.207,0.311l-0.276,0.242l-1.26,0.794l-0.449,0.173l-0.518,0.034l-0.397,-0.259l-3.004,-2.158l-0.432,0Zm8.421,-4.021l-0.501,-1.226l-1.226,-2.244l-0.12,-0.363l-0.035,-0.397l0.432,-0.466l0.397,0.018l0.638,0.293l1.831,1.053l1.225,0.846l0.432,0.345l0.207,0.415l-0.034,0.414l-0.328,0.311l-0.484,0.259l-1.329,0.673l-0.622,0.259l-0.311,-0.052l-0.172,-0.138Zm8.897,-1.261l-0.207,-0.018l-0.518,-0.328l-2.089,-1.433l-1.485,-1.519l-0.224,-0.587l0.155,-0.518l0.501,-0.19l0.449,-0.017l0.259,0.017l0.535,0.138l2.382,1.658l0.294,0.224l0.242,0.38l0.103,0.397l-0.397,1.796Zm-5.426,-0.864l-0.345,-0.518l-0.259,-0.241l-0.449,-0.328l-1.727,-1.157l-0.518,-0.276l-1.243,-0.484l-0.345,-0.293l-0.362,-0.518l-0.104,-0.38l3.177,-2.417l0.414,-0.207l0.328,-0.035l0.535,0.138l0.345,0.415l-0.017,0.604l-0.345,1.053l-0.017,0.449l0.293,0.57l0.708,1.087l0.466,0.535l0.518,0.397l0.345,0.363l-0.121,0.501l-0.276,0.241l-0.69,0.432l-0.311,0.069Zm-18.419,-0.861l-0.346,-0.018l-0.328,-0.172l-3.487,-7.752l-1.537,-4.678l0.087,-1.071l0.828,-0.086l1.589,0.345l2.866,0.708l0.673,0.362l2.054,1.675l2.763,0.708l0.276,0.345l0.052,0.604l-0.07,0.76l-0.828,5.317l-0.207,0.311l-0.363,0.138l-0.69,-0.034l-1.278,0.863l-0.587,0.432l-0.691,0.569l-0.776,0.674Zm12.43,-3.851l-0.225,-0.155l-1.519,-3.28l-0.069,-0.415l-0.035,-0.656l-0.017,-0.915l0.035,-1.381l0.846,-1.243l0.414,0l0.483,0.414l0.777,0.76l2.659,2.693l0.587,1.191l-1.002,1.468l-0.276,0.242l-2.658,1.277Zm-8.857,-9.91l-0.345,-0.017l-1.329,-0.414l-1.502,-0.674l-0.328,-0.19l-0.19,-0.431l0.362,-0.725l-0.5,-0.432l-0.656,-0.155l-0.657,0.052l-0.483,0.293l-0.552,0.673l-0.415,0.639l-0.362,0.121l-0.604,0.121l-0.846,0.086l-0.518,-0.103l-0.346,-0.328l1.416,-2.055l0.691,-0.57l0.293,-0.207l1.675,-0.5l0.777,-0.19l0.483,0.017l2.21,-1.519l1.692,-2.4l1.433,-0.725l0.362,0.259l0.19,1.243l0.035,0.431l0.034,1.364l-0.052,5.145l-1.294,0.984l-0.242,0.138l-0.432,0.069Zm13.914,-3.16l-0.915,-0.483l-3.022,-1.243l-0.466,-0.415l-0.017,-0.414l1.985,-2.21l0.259,-0.259l0.449,-0.276l2.331,-1.243l0.483,-0.121l5.525,1.848l2.952,1.208l0.656,0.086l0.363,-0.121l0.742,-0.638l0.311,-0.19l0.259,0.017l0.31,0.207l0.398,0.484l0.103,0.38l-0.138,0.517l-0.466,1.382l-0.449,0.293l-0.811,0.294l-0.346,0.034l-0.915,0.035l-2.641,-0.018l-0.483,-0.069l-0.57,-0.224l-0.345,-0.19l-0.536,-0.104l-0.328,0.035l-3.97,1.139l-0.708,0.259Zm-20.899,-5.333l0.104,-0.622l-0.069,-0.414l-0.225,-0.277l-1.053,-0.397l-0.449,-0.086l-0.5,-0.052l-0.432,-0.121l-0.293,-0.431l0.932,-1.002l3.056,-1.691l0.431,0.207l0.742,1.001l0.311,0.673l0.449,1.451l-0.121,0.552l-0.362,0.622l-0.225,0.276l-0.328,0.311l-0.708,0.397l-1.691,0.328l0.431,-0.725Zm4.06,-1.882l-0.207,-0.017l-0.967,-0.812l-0.207,-0.293l-0.587,-2.124l0.259,-0.241l0.57,-0.018l2.003,0.432l0.241,0.138l0.449,0.553l0.553,0.932l0.138,0.431l-0.277,0.501l-0.966,0.38l-1.002,0.138Zm13.006,-22.668l-0.587,-1.243l0,-1.278l0.19,-0.31l1.485,-0.829l0.362,-0.121l0.829,-0.103l0.742,0.069l0.535,0.138l0.208,0.276l-0.07,0.535l-0.224,0.691l-0.207,0.311l-2.711,2.244l-0.397,0.242l-0.207,-0.397l0.052,-0.225Zm7.727,0.5l-0.311,-0.207l-1.088,-1.399l-0.034,-0.483l0.034,-0.483l0.795,-2.331l0.224,-0.397l0.259,-0.224l0.276,-0.087l3.194,0.173l1.398,1.087l-2.002,2.849l-0.553,0.587l-0.276,0.224l-0.311,0.173l-1.225,0.432l-0.38,0.086Zm9.418,-34.355l-0.795,-0.742l-0.224,-0.259l-2.952,-3.954l0.017,-0.587l0.328,-0.949l0.276,-0.328l0.346,-0.121l1.156,-0.052l0.449,0.052l2.193,0.967l1.053,0.794l0.345,0.397l0.138,0.604l-0.172,0.639l-1.33,2.641l-0.345,0.656l-0.294,0.19l-0.189,0.052Zm-31.76,-4.039l-0.293,-0.311l-0.173,-0.414l-0.276,-1.105l0.138,-0.38l0.276,-0.207l2.901,-0.812l0.345,0.156l-0.19,-0.76l-0.621,-0.155l-0.674,0.259l-0.897,0.069l-0.398,-0.104l-0.224,-0.501l-0.898,-3.159l0.138,-0.345l0.397,-0.328l0.536,-0.156l2.244,0.898l0.328,0.173l0.414,0.328l1.52,-0.863l2.089,-1.917l1.277,-0.621l0.57,-0.086l0.259,0.587l0,0.569l-0.104,0.553l-1.139,4.885l-0.156,0.346l-0.189,0.31l-0.657,0.829l-2.624,2.538l-0.397,0.207l-1.743,0.138l-0.587,-0.069l-0.881,-0.293l-0.311,-0.259Zm33.709,-2.383l-0.242,-0.017l-2.382,-0.674l-0.604,-0.466l-0.19,-0.449l0.034,-0.483l1.174,-2.314l0.345,-0.259l0.277,-0.086l1.087,1.053l0.708,3.488l-0.207,0.207Zm-5.005,-1.434l-0.276,-0.103l-0.225,-0.363l-0.38,-1.122l-0.034,-0.535l0.224,-0.553l0.156,-0.328l0.673,-1.07l0.38,-0.466l3.591,-2.141l0.345,0.069l0.311,0.535l0.121,0.346l0.12,0.569l0.104,1.796l-0.38,-0.259l-0.224,-0.259l-0.397,-0.086l-1.036,0.103l-0.484,0.207l-0.448,1.658l-0.795,1.536l-1.346,0.466Zm-3.273,-2.485l-1.14,-2.71l-0.587,-1.036l-0.293,-0.881l0.276,-0.621l0.207,-0.276l0.898,-0.76l0.345,-0.086l1.692,0.604l0.069,1.191l-0.086,2.59l-0.121,0.518l-0.345,0.897l-0.76,0.536l-0.155,0.034Zm-10.436,-4.903l-0.38,-0.138l-0.276,-0.466l-0.259,-0.656l-0.052,-0.466l0.207,-0.414l0.57,-0.656l0.432,-0.622l0.017,-1.347l-0.242,-1.484l-0.242,-1.105l0,-0.553l0.052,-0.483l0.121,-0.639l0.104,-0.397l0.259,-0.76l0.328,-0.673l0.397,-0.639l0.552,-0.207l2.262,1.088l0.414,0.328l0.259,0.328l0.501,1.018l0.241,0.708l0.57,1.813l0.294,1.433l-0.466,1.295l-0.208,0.293l-3.798,2.97l-0.293,0.19l-1.364,0.241Zm19.861,-0.638l-0.224,-0.034l-0.432,-0.259l-2.537,-2.883l-0.121,-3.712l0,-0.553l0.069,-0.569l0.138,-0.38l0.259,-0.484l1.329,-1.968l0.259,-0.207l0.501,-0.086l0.431,0.034l1.796,0.587l0.259,0.397l0.069,1.226l-0.811,6.681l-0.57,1.83l-0.259,0.363l-0.156,0.017Zm-25.746,-1.02l-0.069,-0.398l-0.017,-0.656l0.086,-0.431l0.449,-1.847l0.156,-0.346l0.172,-0.328l0.328,-0.414l0.259,-0.207l0.311,-0.173l1.381,-0.656l0.587,0.017l0.276,0.225l0.104,0.362l-0.328,3.332l-0.742,1.848l-0.328,0.293l-0.294,0.19l-0.483,0.086l-0.328,-0.034l-1.261,-0.294l-0.241,-0.241l-0.018,-0.328Zm17.374,-0.259l-0.225,0l-1.294,-0.241l-0.311,-0.294l-0.76,-1.951l-0.466,-1.277l-0.017,-0.725l1.226,-1.537l0.811,-0.501l0.414,-0.034l1.174,0.621l1.14,1.157l0.5,1.036l0.018,0.552l-0.207,1.071l-0.484,1.329l-1.519,0.794Zm-3.578,-5.075l-0.121,-0.224l0.034,-0.397l0.121,-0.933l0.121,-0.535l0.224,-0.276l0.363,-0.276l0.017,-0.743l0.207,-0.466l0.328,-0.449l0.242,-0.448l0.138,-0.38l0.294,-0.311l0.362,-0.052l0.346,0.225l0.328,0.172l0.449,0.052l0.552,-0.017l0.276,0.103l0.276,0.208l0.225,0.259l0.673,0.328l0.328,0.276l0.328,0.172l0.363,-0.086l0.604,-0.483l0.414,-0.156l0.38,0.294l0.104,0.535l-0.173,0.708l-0.259,0.604l-0.172,0.466l-0.432,0.725l-0.138,0.691l-0.328,0.086l-0.501,-0.345l-0.242,-0.017l-0.379,-0.121l-0.432,-0.639l-0.501,-0.138l-0.483,-0.035l-0.794,-0.345l-0.812,-0.19l-0.259,0.087l-0.397,0.328l-0.552,0.155l-0.38,0.397l-0.259,0.673l-0.224,0.397l-0.259,0.121Zm5.545,-5.075l-1.744,-0.518l-0.656,-0.225l-0.138,-0.328l0.138,-0.466l0.345,-0.259l1.105,-0.397l0.501,-0.069l2.503,0.052l0.311,0.173l0.069,0.5l-0.052,0.639l-1.726,0.863l-0.277,0.052l-0.379,-0.017Zm-11.561,-1.279l-2.313,-1.381l-0.259,-0.207l-0.363,-0.363l-0.448,-0.621l-0.104,-0.363l0.173,-0.483l0.328,-0.328l0.5,-0.19l0.397,-0.052l0.432,-0.017l1.105,0l0.483,0.155l0.328,0.294l0.415,0.535l0.293,0.535l0.932,2.331l-0.259,0.276l-0.414,0.173l-0.483,0.103l-0.622,-0.19l-0.121,-0.207Zm9.343,-1.414l-0.328,-0.052l-2.935,-1.122l-0.259,-0.328l-0.552,-2.21l0.552,-0.725l1.502,-0.656l0.38,-0.034l0.345,0.155l0.225,0.259l0.311,0.949l0.224,0.259l0.293,0.19l0.398,0.104l0.431,0.069l0.915,0.034l0.432,-0.017l0.88,-0.172l0.691,-0.104l0.656,0.104l0.328,0.172l0.242,0.225l0.345,0.604l0.224,0.69l0.052,0.656l-0.259,0.536l-0.242,0.103l-1.795,0.017l-2.124,0.07l-0.932,0.224Zm-8.256,-2.039l-1.278,-1.035l-0.38,-0.346l-0.224,-0.259l-0.19,-0.379l0.035,-0.536l0.345,-1.83l0.311,-0.604l0.638,-0.052l0.328,0.173l1.986,1.864l-0.743,3.056l-0.276,0.207l-0.311,-0.069l-0.241,-0.19Zm14.943,-0.482l-1.502,-0.484l-0.915,-1.087l-1.036,-0.035l-1.381,0.363l-0.431,0.017l-0.95,-0.069l-0.328,-0.156l-0.276,-0.207l-0.259,-0.449l-2.21,-2.572l-0.759,0.414l-1.658,0.38l-0.397,-0.086l-0.242,-0.242l-0.155,-0.863l-0.138,-1.105l0.017,-0.345l0.173,-0.708l0.362,-0.484l0.846,-0.845l0.328,-0.277l0.466,-0.103l0.57,0.034l0.242,0.138l0.449,0.156l1.122,-0.104l1.916,-0.345l0.535,-0.155l0.915,-0.587l0.294,-0.225l0.38,-0.086l0.535,0.086l0.449,0.155l0.259,0.139l1.502,1.156l0.241,0.242l0.225,0.259l0.19,0.276l0.984,1.606l0.38,1.001l0.034,0.414l-0.017,0.449l-0.069,0.95l-0.691,3.384Zm-13.607,-8.806l-0.242,-0.017l-1.795,-0.484l-0.121,-0.31l0.345,-0.881l3.712,-3.591l0.363,-0.259l0.449,-0.138l0.448,0.017l4.437,1.157l0.311,0.294l0.932,1.191l0.173,0.414l-0.276,0.311l-0.881,0.535l-0.518,0.173l-1.519,0.431l-0.414,0.035l-1.951,-0.017l-1.26,-0.104l-0.449,0.138l-0.294,0.156l-1.45,0.949Zm10.755,-2.536l-0.933,-0.915l-0.777,-0.898l-0.258,-0.449l-0.139,-0.311l-0.172,-2.555l0.155,-0.535l0.38,-0.449l0.363,-0.224l0.362,-0.086l0.535,-0.035l0.501,0.224l0.242,0.346l1.553,3.988l0.121,1.053l-0.138,0.466l-0.173,0.328l-0.379,0.328l-0.484,0.086l-0.311,-0.069l-0.328,-0.155l-0.12,-0.138Zm24.158,-7.58l-0.103,0.138l-1.209,0.932l-1.139,0.604l-1.658,1.779l-0.259,0.535l-0.276,0.449l-0.224,0.241l-1.64,1.312l-1.502,0.708l-0.691,0.242l-0.88,0.138l-0.397,-0.069l-0.363,-0.242l-2.607,-3.021l-0.19,-0.38l-0.052,-0.397l0.173,-0.328l2.417,-0.88l0.432,0.172l0.259,0.208l0.397,0.431l1.036,-0.242l0.224,-0.172l-0.656,-0.604l-1.588,-0.691l-1.019,0.639l-0.276,0.328l-0.259,0.224l-0.294,0.017l-0.379,-0.224l-0.259,-0.328l-0.794,-1.64l-0.329,-0.829l-0.448,-2.192l0.966,-1.45l0.208,-0.259l0.742,-0.156l0.276,0.052l2.4,-0.449l0.311,-1.588l0.103,-1.347l-0.052,-0.5l0.087,-0.415l0.483,-1.346l0.259,-0.346l0.311,-0.138l3.125,-1.036l2.192,-0.535l0.276,0.087l2.918,2.382l1.951,0.691l0.466,0.379l1.07,1.83l0.173,0.397l-0.069,0.398l-1.899,2.779l-0.224,0.242l-0.277,0.19l-0.466,0.103l-1.554,-0.155l-0.276,-0.207l-0.328,-0.38l-1.295,-0.484l0.035,0.467l0.224,0.362l1.485,1.019l0.742,0.241l0.984,0.208l0.208,0.535l-0.346,0.742l-0.38,0.587l-0.276,0.242Zm-54.89,6.525l-0.241,-0.017l-0.363,-0.242l-0.811,-2.4l-0.104,-0.345l-0.052,-0.38l0.069,-0.449l0.259,-0.466l0.536,-0.742l0.569,-0.156l0.363,0.242l1.329,2.227l0,1.588l-1.139,1.071l-0.415,0.069Zm17.589,-2.313l-0.449,-0.069l-1.519,-0.967l-1.519,-2.4l-0.035,-0.5l0.259,-0.415l0.276,-0.19l1.468,-0.483l0.483,0.224l2.797,4.006l-0.017,0.362l-1.554,0.397l-0.19,0.035Zm8.113,-0.051l-0.621,-0.051l-2.538,-1.053l-0.345,-0.397l0.449,-0.311l1.381,-0.207l0.742,-0.156l0.346,-0.121l0.604,-0.328l0.431,-0.293l0.449,-0.121l0.984,0.242l0.225,0.414l-0.156,1.364l-0.276,0.328l-0.293,0.173l-0.881,0.397l-0.501,0.12Zm8.648,-0.743l-0.863,-0.535l-0.466,-0.38l-0.19,-1.398l0.172,-0.484l2.763,-0.707l0.345,0l0.328,0.276l0.069,0.38l-0.38,2.555l-0.431,0.466l-0.467,0.103l-0.621,-0.103l-0.259,-0.173Zm-14.069,-1.019l-0.449,-0.069l-0.673,-0.242l-0.449,-0.276l-0.259,-0.207l-0.363,-0.363l-0.535,-0.708l-0.967,-2.106l-0.017,-0.432l0.069,-1.467l0.294,-0.294l3.349,-0.88l0.38,-0.069l2.158,0.017l3.919,0.225l0.828,0.276l0.328,0.155l0.587,0.38l0.242,0.224l0.328,0.38l0.639,1.002l0.138,0.517l-3.487,0.95l-4.161,1.847l-0.604,0.328l-1.295,0.812Zm12.642,-2.208l-0.328,-0.018l-1.554,-2.175l-0.086,-3.28l0.103,-0.535l0.363,-0.328l2.382,-0.587l0.415,0.034l0.414,0.207l0.397,0.38l0.777,1.986l0.932,2.865l-0.052,0.363l-0.276,0.19l-2.676,0.829l-0.811,0.069Zm-17.5,-1.52l-0.932,-0.052l-3.056,0.018l-1.122,-0.57l0.017,-0.449l0.138,-0.345l0.985,-1.036l0.362,-0.225l0.483,-0.086l0.346,0.017l0.621,0.121l1.848,0.414l0.397,0.208l0.19,1.657l-0.277,0.328Zm-7.878,-0.397l-0.242,-0.138l-0.5,-0.794l-0.104,-0.345l-0.121,-0.777l-0.017,-0.639l0.052,-1.346l0.173,-0.449l0.224,-0.259l0.363,0l1.312,0.794l0.224,0.362l0.086,0.484l-0.034,0.466l-0.345,2.089l-0.57,0.38l-0.294,0.155l-0.207,0.017Zm11.327,-3.66l-0.207,-0.052l-0.276,-0.241l-0.363,-0.466l-0.19,-0.38l-0.017,-0.415l0.155,-0.328l1.727,-0.811l2.451,-0.207l1.312,1.847l-1.243,0.345l-3.349,0.708Zm6.787,-0.813l-0.605,-0.138l-0.776,-0.224l-0.484,-0.259l-0.224,-0.242l-0.121,-0.449l0.121,-2.434l2.555,0.362l0.639,0.121l0.5,0.225l0.259,0.207l0.259,0.328l0.156,0.414l0.138,0.535l0.051,0.622l-0.103,0.518l-0.345,0.242l-2.02,0.172Zm-8.61,-0.239l-2.728,-0.656l-0.431,-0.398l-0.138,-0.328l-0.311,-1.156l0.155,-0.501l0.536,-0.587l0.345,-0.242l4.696,-1.433l1.225,0.415l0.846,1.398l0.277,0.535l-0.018,0.363l-0.587,0.207l-2.175,0.553l-1.657,0.362l-0.328,0.138l0.293,1.33Zm10.444,-3.989l-2.555,-1.364l-0.362,-0.397l-0.501,-1.934l0.431,-0.172l3.885,1.226l0.121,2.814l-0.156,0.328l-0.483,-0.121l-0.38,-0.38Zm3.182,-3.298l-2.434,-0.466l-0.293,-0.346l-0.121,-1.173l3.798,-0.363l0.397,0.121l0.19,1.26l-0.052,0.518l-0.345,0.242l-0.363,0.086l-0.569,0.104l-0.208,0.017Zm-3.717,-0.206l-0.432,-0.035l-0.293,-0.138l-0.95,-0.829l-0.414,-0.569l-0.794,-2.953l1.502,-1.657l0.362,0.086l1.537,1.848l0.863,1.105l-1.416,0.518l-0.086,0.535l0.017,0.431l0.104,1.658Zm3.175,-4.541l-1.882,-0.363l-0.846,-0.259l-0.345,-0.259l-0.224,-0.259l-0.156,-0.293l-0.103,-0.432l0.915,-0.949l0.639,-0.518l0.535,-0.104l0.259,0.104l1.053,0.742l1.087,1.381l-0.172,0.639l-0.156,0.328l-0.276,0.138l-0.328,0.104Zm5.149,-2.107l-1.726,-3.108l-0.708,-1.674l-0.017,-0.553l0.138,-0.535l0.328,-0.621l0.207,-0.259l0.552,0.017l1.761,2.4l0.536,2.382l-0.139,0.898l-0.69,0.863l-0.242,0.19Zm11.864,-3.696l-0.725,-0.155l-1.899,-0.949l-0.293,-0.467l-0.139,-0.656l0.07,-0.552l0.414,-0.898l0.311,-0.414l1.622,-0.881l0.484,-0.086l0.311,0.069l0.259,0.207l0.189,0.259l0.07,0.587l-0.363,3.608l-0.311,0.328Zm24.464,-6.719l0.062,0.005l0.725,0.501l0.812,1.035l0.448,0.915l0.184,1.285l-0.097,0.01l-0.19,-1.329l-0.449,-0.915l-0.811,-1.036l-0.684,-0.471Zm-44.35,3.681l-0.656,-0.759l-2.452,-0.743l-1.139,-0.448l-0.19,-0.277l0.501,-1.847l0.31,-0.328l0.397,-0.19l1.485,0.19l0.397,0.104l3.246,-0.484l1.364,-1.208l1.726,1.951l0.501,1.536l0.138,0.76l-2.21,0.19l-0.328,-0.311l-0.414,-0.173l-0.121,-0.345l0.362,-0.293l0.242,-0.311l-0.362,-0.259l-0.656,-0.087l-1.433,0.363l-0.139,0.742l0.294,0.346l0.086,0.379l0.605,0.346l-0.777,0.967l-0.415,0.155l-0.362,0.034Zm56.11,-2.562l0.021,0.025l-1.771,-0.827l0.027,-0.002l1.723,0.804Zm-16.762,-6.479l0.005,-0.003l1.174,0.466l0.121,1.433l1.882,3.142l0.445,0.193l-0.031,-0.003l-0.518,-0.225l-1.882,-3.142l-0.12,-1.433l-1.076,-0.428Zm-14.028,1.079l0.889,0.937l0.622,0.242l0.019,0.002l0.084,0.033l0.415,0.034l-0.363,0.345l-1.554,0.139l-2.348,-0.76l1.071,-0.742l1.165,-0.23Zm0.266,0l0.061,-0.012l0.932,0.984l0.537,0.209l-0.019,-0.002l-0.622,-0.242l-0.889,-0.937Z" style="fill:#565656;"/>

    <path id="X" d="M68.406,755.526l-0.043,-0.047l-1.226,0.242l-1.07,0.742l-0.104,-1.174l0.173,-3.97l-1.641,-3.919l-0.241,-0.777l0.846,-4.334l0.518,-0.604l0.949,-0.639l0.708,-0.431l0.57,-0.328l0.501,-0.173l0.863,-0.38l-0.035,-2.451l-0.431,-1.416l0.189,-0.829l0.984,-1.83l0.881,-1.001l0.811,0.035l1.727,1.174l0.069,-4.541l-0.76,-0.949l-0.725,-0.449l-0.708,-0.725l-0.38,-0.967l-0.345,-1.951l-0.034,-1.778l0.12,-4.696l0.864,-2.193l0.552,-0.224l2.193,0.121l0.708,0.138l0.517,0.673l1.917,1.261l0.725,0.207l0.311,-0.415l-0.622,-1.018l-1.157,-0.311l-0.794,-0.38l-0.984,-0.811l-4.04,-6.284l1.192,-1.416l1.208,-0.88l3.608,-1.157l0.777,0.431l0.708,1.295l-0.017,0.725l2.227,6.474l0.431,0.328l0.346,-0.604l-0.207,-2.469l-0.864,-4.385l-0.328,-1.415l-0.31,-2.417l0.051,-0.915l0.156,-1.261l0.172,-0.88l0.225,-0.829l0.069,-1.053l-0.449,-0.345l-1.053,0.017l-0.846,0.967l-1.606,0.949l-3.09,-0.466l-1.899,-1.035l-1.019,-1.451l0.208,-0.846l1.312,-2.089l3.712,-3.78l1.018,0.034l0.829,0.173l2.538,-0.604l1.726,-0.864l1.364,-1.225l0.432,-0.536l0.552,-6.543l-0.898,0.328l-0.863,5.836l-0.552,1.035l-1.761,0.881l-2.521,0.829l-0.829,0.017l-0.569,-0.242l-0.984,-0.777l-0.726,-2.192l-0.828,-1.174l-1.623,-1.934l-0.95,-0.535l-2.261,-0.57l-1.882,0.57l-0.811,0.345l-1.52,2.4l0.346,1.295l0.466,0.431l0.345,1.917l-1.726,1.812l-1.623,1.226l-0.829,0.138l-1.726,-0.397l-0.794,-0.259l-1.623,0.052l-0.484,0.207l-1.191,0.57l-0.656,0.224l-0.414,0.018l-1.571,-1.002l-2.918,-0.587l-1.278,-0.069l0.38,-2.503l1.105,-1.675l0.449,-0.31l0.811,-0.035l0.812,0.121l0.915,-0.276l1.605,-2.987l-0.759,0.725l-0.501,1.122l-0.483,0.656l-0.708,0.225l-2.952,-0.294l-1.502,-0.967l-2.279,-2.779l-0.052,-1.209l0.449,-1.053l-0.086,-2.192l-0.294,-1.26l-0.846,-2.383l-0.777,-0.984l-0.38,-0.829l-0.5,-3.107l-0.535,-3.643l1.174,-3.539l2.814,-7.596l1.122,-1.468l1.001,-2.158l-0.19,-1.191l-0.69,-1.761l1.036,-4.713l7.371,0.622l1.451,2.399l2.399,0.484l3.85,-2.883l3.833,1.432l2.4,4.316l3.366,2.417l4.333,3.833l4.8,1.934l2.883,-3.367l1.916,-2.883l3.85,-0.483l4.47,0.604l-0.085,1.347l0.035,0.88l-0.483,1.381l-0.484,0.691l-0.518,0.535l-0.742,0.639l-0.484,0.828l0.881,2.555l1.571,3.436l0.293,1.398l-0.517,1.813l0.466,1.537l-0.518,5.938l-0.104,0.795l-0.431,0.915l-0.38,2.037l0.138,0.984l0.621,1.502l0.432,3.815l-1.036,1.778l-0.552,0.639l0,0.932l1.571,3.747l1.536,3.107l0.259,0.846l0.345,1.934l0.087,1.761l0.69,0.984l0.121,2.158l-1.243,1.156l-3.194,1.52l-0.759,-0.138l-0.242,-0.846l-0.345,-0.57l-0.794,-0.155l-0.587,0.31l-0.518,0.501l-2.262,4.506l0.518,1.001l1.277,1.105l0.294,0.656l-1.64,5.231l-0.363,0.691l-0.224,0.725l-0.104,0.708l0.259,2.589l0.432,1.727l0.086,1.329l0.121,3.142l-0.069,0.898l-0.224,1.087l-0.311,0.743l-0.173,0.656l-0.086,1.657l0.449,1.122l0.984,1.658l0.621,0.535l1.313,0.57l0.983,-0.018l0.691,0.035l1.537,0.155l0.794,0.207l2.348,1.451l0.155,3.435l-0.173,0.639l-0.466,0.328l-0.898,-0.224l-2.468,0.828l-0.829,2.072l-0.138,2.244l2.123,1.589l3.609,3.418l0.276,2.175l-0.311,0.777l-1.554,1.036l-0.483,0.19l-0.518,0.293l0,0.984l1.26,1.899l1.395,1.582l-1.723,-0.805l-0.027,0.002l-0.076,-0.036l-0.829,0.034l-3.453,1.692l-0.345,1.364l-3.339,0.369l-0.183,-1.284l-0.449,-0.915l-0.811,-1.036l-0.725,-0.501l-0.063,-0.005l-0.041,-0.029l-1.074,-0.1l-0.445,-0.194l-1.882,-3.142l-0.121,-1.433l-1.174,-0.466l-0.005,0.004l-0.098,-0.038l-0.812,0.57l-1.053,1.087l-0.811,1.209l-0.346,1.346l-4.747,-0.811l-1.447,-0.375l-0.487,-0.385l-0.062,-0.002l-0.042,-0.032l-1.622,-0.035l0,-1.398l-0.38,1.156l-0.396,-0.032l-0.536,-0.209l-0.933,-0.984l-0.06,0.012Zm-40.97,-3.498l-0.466,0.449l-0.553,0.051l-0.656,-0.086l-0.363,0.086l-0.483,0.19l-0.293,0.156l-0.881,0.725l-0.207,-0.035l-0.38,-0.224l-0.846,-1.347l-0.155,-0.293l-0.138,-0.328l-0.104,-0.328l0.069,-0.553l2.072,-1.036l0.293,0.018l2.089,1.053l0.242,0.224l0.552,0.604l0.208,0.674Zm17.957,-58.562l-0.691,0l-0.621,-0.449l-0.501,-0.156l-0.38,0.691l0.846,0.932l2.176,0.777l0.638,-0.5l1.002,-0.691l2.589,-1.606l2.417,-0.328l0.725,0.087l1.71,1.156l-0.553,4.316l1.882,2.953l-0.397,1.087l-0.673,0.259l-0.173,0.725l0.293,0.915l1.658,1.122l0.639,0.156l0.621,1.899l-0.276,1.191l-0.311,0.742l-2.572,0.605l-1.347,-0.19l-0.587,0.052l-1.674,0.897l-0.553,0.346l-0.397,0.638l-0.173,2.797l0.777,0.812l0.656,0.345l0.397,0.449l-2.658,1.105l-1.364,-1.226l0.466,-1.312l-0.794,0.241l-0.656,1.33l0.293,3.038l4.627,4.644l1.191,0.415l1.347,0.966l0.414,0.449l0.345,1.779l-0.189,0.759l-1.9,0.311l-0.932,-0.086l-0.811,0.448l-0.225,1.295l0.76,0.95l1.26,1.018l0.138,0.518l0.846,1.623l0.639,0.898l0.294,1.036l-0.57,0.483l-5.507,-0.483l-1.002,0.397l0.363,2.814l0.587,0.673l0.69,0.483l0.449,1.209l-0.5,2.987l-0.484,0.207l-3.245,0.742l-0.864,-0.656l-0.656,-0.639l-0.638,-0.207l-2.279,-0.103l-2.59,-0.346l-3.159,-0.915l-2.193,-1.174l-0.449,-0.379l-0.414,-0.708l1.778,-4.593l2.331,-2.848l-0.345,-1.088l0.759,-0.742l1.071,-2.745l0.811,-7.959l-0.138,-2.348l-0.466,-1.726l-0.432,-0.363l-0.604,-0.431l0.431,-2.814l0.501,-6.025l0.242,-0.587l0.466,-0.691l0.501,-0.639l1.156,-1.122l0.76,-2.59l0.829,-4.972l-0.95,-1.916l-0.276,-0.708l0.017,-0.656l0.812,-1.295l2.865,0.259l0.587,1.312l-0.483,0.674Zm11.751,22.445l-0.052,1.14l-0.466,-0.087l-0.224,-0.88l-0.121,-0.328l-0.156,-0.294l-0.379,-0.31l-2.297,-1.209l-0.328,-0.138l-0.794,-0.173l-0.345,-0.241l-0.673,-1.917l0.069,-0.328l0.397,-0.155l0.569,-0.069l0.846,-0.017l0.587,0.138l0.467,0.345l2.9,4.523Z" style="fill:#808080;"/>

    <path id="XIV" d="M64.671,614.656l0.76,-0.397l0.656,-0.674l0.483,-0.828l1.209,-1.502l3.556,-0.069l0.553,0.431l0.258,1.813l0.725,1.329l0.726,0.812l0.621,0.431l0.708,0.156l0.76,0.069l0.707,-0.035l1.848,-0.345l0.725,0.017l3.625,1.261l1.14,0.569l0.932,0.138l2.331,-0.897l0.621,-0.346l0.484,-0.535l0.725,-0.69l0.621,-0.311l0.656,-0.121l3.919,0.345l0.622,0.207l0.777,0.536l0.673,0.656l1.381,0.966l1.657,0.035l0.518,0.086l0.294,0.76l0.155,0.794l0.069,0.691l-0.19,0.259l-0.466,1.622l0.087,3.212l0.88,4.039l0.88,3.056l-0.811,3.09l-2.054,1.347l-1.002,0.811l-0.656,2.866l0.656,1.33l1.761,1.812l0.415,-0.742l0.828,0.57l0.121,1.208l-0.932,2.244l-0.345,0.605l-0.484,0.138l-0.569,-0.553l-0.518,-0.051l-1.416,3.936l-0.002,0l0.002,-0.017l-4.472,-0.605l-3.849,0.484l-1.917,2.883l-2.883,3.366l-4.799,-1.916l-4.316,-3.85l-3.367,-2.4l-2.4,-4.316l-3.85,-1.433l-3.849,2.884l-2.4,-0.484l-0.584,-0.967l-0.866,-1.433l-7.372,-0.621l0.518,-3.004l1.657,-2.003l-0.121,-1.864l-0.259,-0.846l-0.638,-0.777l-0.328,-0.691l0.5,-0.794l0.363,-0.414l4.627,-2.262l2.14,0.38l0.639,-0.967l-0.052,-3.763l1.813,-4.644l0.38,-0.708l0.88,-2.262l0.76,-2.52l-0.535,-0.984l0.828,0.241l0.622,0.156l0.69,0.086l0.76,-0.086Z" style="fill:#969696;"/>

    <path id="IX" d="M89.396,615.053l-0.622,0.311l-0.725,0.691l-0.483,0.535l-0.622,0.345l-2.331,0.898l-0.932,-0.138l-1.139,-0.57l-3.626,-1.26l-0.725,-0.018l-1.847,0.346l-0.708,0.034l-0.76,-0.069l-0.708,-0.155l-0.621,-0.432l-0.725,-0.811l-0.725,-1.33l-0.259,-1.812l-0.553,-0.432l-3.556,0.069l-1.209,1.502l-0.483,0.829l-0.656,0.673l-0.76,0.397l-0.759,0.087l-0.691,-0.087l-0.621,-0.155l-0.829,-0.242l0.622,-1.105l-0.173,-3.487l-1.381,-4.903l-4.334,-12.396l-1.432,-4.799l-0.587,-3.729l0.034,-1.001l0.432,-1.813l0.449,-0.207l0.103,0.017l0.484,0.242l0.759,0.414l2.02,1.347l6.457,-6.354l0.397,-0.777l0.173,-0.604l0.189,-0.949l-0.448,-0.743l-0.864,-0.431l-0.897,-2.435l2.935,-4.488l0.707,-0.846l0.277,-2.797l-0.328,-0.621l-1.554,-0.139l-0.535,-0.656l2.261,-2.831l3.367,-0.501l1.036,0.57l1.035,0.673l0.881,0.518l3.367,0.812l2.089,-0.052l1.502,1.761l0.69,1.692l1.519,2.175l1.122,0.691l0.518,0.207l0.829,0.138l0.881,0.224l0.621,0.311l2.106,1.813l0.294,0.742l0.794,0.984l0.518,0.363l3.694,0.621l3.039,-0.293l0.725,-0.207l0.846,0.328l0.794,1.156l0,1.278l-0.103,0.949l-0.052,1.019l0.103,0.725l0.484,1.83l0.31,0.622l0.881,0.638l0.397,-0.794l0.328,-0.777l0.397,-0.431l2.175,-1.036l1.606,-0.846l0.414,-0.397l0.38,-1.053l2.555,-0.553l5.68,-0.121l1.571,0.259l-0.034,1.416l-0.311,2.279l0.259,1.795l0.777,4.057l0.518,1.105l1.053,1.105l0.656,0.397l0.898,0.725l0.448,1.054l-0.103,1.018l-0.777,3.194l-1.519,1.588l-0.553,0.259l-1.191,-0.034l-0.777,-0.087l-0.673,0.104l-1.088,0.552l-3.47,2.038l-2.331,1.398l-0.656,0.414l-0.811,0.777l-0.414,0.691l-0.19,0.794l-0.104,1.675l0.017,0.811l0.242,0.829l0.242,2.002l0.362,3.488l-0.379,2.848l-1.157,3.332l-0.863,3.988l-0.19,1.191l-0.346,0.587l-2.261,0.121l-0.639,-0.293l-1.019,-1.433l-0.379,0.017l-0.069,-0.691l-0.156,-0.794l-0.293,-0.759l-0.518,-0.087l-1.658,-0.034l-1.381,-0.967l-0.673,-0.656l-0.777,-0.535l-0.621,-0.207l-3.919,-0.346l-0.656,0.121Z" style="fill:#565656;"/>

    <path id="VIII" d="M109.399,574.068l-2.555,0.553l-0.38,1.053l-0.414,0.397l-1.606,0.846l-2.175,1.036l-0.397,0.431l-0.328,0.777l-0.397,0.794l-0.881,-0.638l-0.31,-0.622l-0.484,-1.83l-0.103,-0.725l0.052,-1.019l0.103,-0.949l0,-1.278l-0.794,-1.156l-0.846,-0.328l-0.725,0.207l-3.039,0.293l-3.694,-0.621l-0.518,-0.363l-0.794,-0.984l-0.294,-0.742l-2.106,-1.813l-0.622,-0.311l-0.88,-0.224l-0.829,-0.138l-0.518,-0.207l-1.122,-0.691l-1.519,-2.175l-0.691,-1.692l-1.502,-1.761l-2.089,0.052l-3.366,-0.812l-0.881,-0.518l-1.035,-0.673l-1.036,-0.57l-3.367,0.501l-2.261,2.831l0.535,0.656l1.553,0.139l0.329,0.621l-0.277,2.797l-0.707,0.846l-2.935,4.488l0.897,2.435l0.863,0.431l0.449,0.743l-0.19,0.949l-0.172,0.604l-0.397,0.777l-6.457,6.354l-2.02,-1.347l-0.76,-0.414l-0.483,-0.242l-0.104,-0.017l-0.379,-1.623l0.379,-0.777l0.484,-0.518l0.311,-0.639l0.431,-4.661l-0.311,-1.278l-0.552,-1.622l-1.105,-2.659l-1.744,-3.004l-1.519,-1.675l-0.431,-3.798l0.31,-0.811l0.915,-1.174l0.743,-0.743l0.293,-1.191l-0.121,-1.156l-0.466,-0.95l-0.57,-0.725l-0.638,-0.57l-0.259,-0.587l0.932,-4.54l0.276,-0.691l1.019,-0.742l1.07,1.226l0.639,0.414l1.968,0.898l1.053,-0.018l0.501,-0.017l0.639,-0.103l1.329,-0.398l1.019,-0.466l0.604,-0.466l0.587,-0.794l0.362,-0.829l0.605,-2.365l0.466,-5.559l0.38,-5.904l0.88,0.397l0.57,0.57l0.759,0.19l0.605,0l0.483,-0.225l0.345,-0.431l0.484,-2.297l0.932,-3.401l1.105,-2.952l1.036,-2.71l0.518,-6.198l0.483,-4.42l0.363,-0.431l2.745,1.225l0.379,0.415l0.173,1.053l3.556,3.142l4.696,2.451l0.622,0.208l3.021,0.086l1.761,-1.985l-0.052,-0.76l0.19,-0.932l1.899,2.002l0.328,0.76l0.173,0.57l0.431,0.38l1.33,0.31l0.552,0.035l0.622,-0.259l0.587,-0.173l1.605,0.259l0.622,1.347l0.311,0.759l0.604,0.587l0.898,0.57l1.536,0.604l2.055,0.622l2.641,2.175l0.501,0.501l2.434,1.346l1.001,0.138l0.708,-0.794l0.069,-0.656l0.19,-0.777l1.951,-2.486l0.466,-0.345l0.57,-0.086l0.846,0.431l0.172,0.898l0.259,1.07l0.725,0.846l0.156,0.087l-0.449,0.241l-0.501,1.917l-2.02,5.939l-1.208,3.159l0.932,3.971l0.881,4.264l-0.432,2.382l-0.432,1.347l-0.863,1.001l-0.328,1.036l0.725,2.365l0.518,0.812l0.673,0.915l0.242,0.725l-0.362,3.988l-0.846,0.639l-0.449,0.535l-0.156,1.018l0.052,1.157l0.466,1.519l0.587,1.399l0.328,1.45l0.708,1.381l2.383,5.835l-0.035,1.191l-1.571,-0.259l-5.68,0.121Z" style="fill:#808080;"/>

    <path id="VII" d="M113.181,520.775l-0.466,0.345l-1.95,2.486l-0.19,0.777l-0.069,0.656l-0.708,0.794l-1.002,-0.138l-2.434,-1.346l-0.501,-0.501l-2.641,-2.175l-2.054,-0.622l-1.537,-0.604l-0.898,-0.57l-0.604,-0.587l-0.311,-0.759l-0.621,-1.347l-1.606,-0.259l-0.587,0.173l-0.621,0.259l-0.553,-0.035l-1.329,-0.311l-0.432,-0.379l-0.172,-0.57l-0.328,-0.76l-1.899,-2.002l-0.19,0.932l0.051,0.76l-1.76,1.985l-3.022,-0.086l-0.621,-0.208l-4.696,-2.451l-3.556,-3.142l-0.173,-1.053l-0.38,-0.415l-2.745,-1.225l0.466,-0.311l1.226,-1.14l2.659,-2.693l0.31,-0.621l0.208,-0.95l-0.052,-1.105l-0.587,-1.433l-1.036,-2.555l0.069,-0.846l0.552,-0.656l1.019,-0.569l1.692,-1.433l1.571,-3.971l0.863,-2.503l0.363,-0.725l1.036,-1.243l0.794,-0.518l0.949,-0.553l1.399,-1.364l0.5,-1.105l0.225,-1.329l0.069,-0.898l0.034,-1.053l0.035,-0.863l0.207,-1.623l1.347,-2.986l0.552,-0.587l0.484,-0.743l0.587,-1.761l0.725,0.294l0.449,0.311l1.415,1.743l0.846,1.278l3.384,1.381l2.503,0.76l3.729,0.241l3.764,0.674l-0.104,-1.019l-0.086,-0.656l2.037,-1.761l4.368,-0.345l0.691,0l0.932,0.241l6.888,2.055l0.484,0.293l1.036,1.053l2.762,2.124l4.454,0.449l1.45,0.103l0.19,-0.017l-0.052,0.225l-0.034,1.139l0.034,1.105l0.104,0.621l-0.138,1.33l-0.432,0.725l-1.726,0.88l-0.76,0.156l-0.846,0.034l-0.587,0.156l-0.604,0.949l-0.052,0.777l0.414,0.863l0.432,0.345l2.711,1.692l0.638,4.523l-0.19,2.987l-0.362,0.622l0.242,1.122l0.845,1.882l0.76,2.296l-0.777,0.656l-0.656,1.139l-0.242,0.674l0.104,2.365l0.276,3.142l-0.69,1.83l-0.346,0.466l-0.707,0.397l-0.915,-0.069l-2.072,0.086l-2.849,3.211l-0.328,2.227l0.535,1.416l-0.258,0.725l-6.043,2.193l-0.708,-0.104l-0.846,-0.224l-0.155,-0.087l-0.725,-0.846l-0.259,-1.07l-0.173,-0.898l-0.846,-0.431l-0.57,0.086Z" style="fill:#b4b4b4;"/>

    <path id="VI" d="M130.922,445.918l0.863,0.293l0.553,0.501l0.967,3.194l-0.225,1.502l1.727,0.587l0.587,-0.156l0.69,-0.5l0.673,-0.052l0.432,0.328l0.294,1.208l-0.087,1.951l0.121,0.604l0.794,0.846l1.174,0.466l0.622,0.449l0.172,0.587l0.018,0.622l-0.121,0.293l0,1.744l0.172,1.347l-2.555,3.884l-2.037,3.867l-1.605,5.715l-1.52,4.264l-0.19,0.017l-1.45,-0.104l-4.454,-0.448l-2.762,-2.124l-1.036,-1.053l-0.483,-0.293l-6.889,-2.055l-0.932,-0.242l-0.691,0l-4.368,0.346l-2.037,1.761l0.087,0.656l0.103,1.018l-3.763,-0.673l-3.729,-0.242l-2.504,-0.759l-3.384,-1.382l-0.846,-1.277l-1.415,-1.744l-0.449,-0.31l-0.725,-0.294l0.242,-1.157l0.362,-3.953l-0.19,-1.744l-0.069,-1.157l0.518,-0.845l0.915,-0.518l0.242,-0.76l-0.018,-1.519l-0.155,-2.193l-0.518,-0.69l-0.19,-0.587l0.087,-0.984l2.934,-5.335l0.674,-0.863l0.017,0l1.139,-0.035l0.639,0.535l0.933,0.208l0.186,0.031l0.694,0.124l0.863,-1.088l0.993,-0.645l2.408,0.991l3.971,-0.225l1.554,2.866l3.09,1.329l2.003,2.935l0.069,0.035l2.348,-0.069l2.02,-0.466l-0.087,-1.243l0.104,-0.674l3.228,-3.746l2.02,-1.26l0.674,0.224l1.795,-0.138l0.967,-0.604l2.883,-1.122l0.863,0Z" style="fill:#565656;"/>

    <path id="RM" d="M119.342,418.416l3.367,0l0.942,0.231l1.388,0.356l0.794,0.283l0.449,0.166l0.967,0.916l0.035,0.033l0.328,1.139l0.845,1.226l0.006,0l0.012,0.017l0.587,0.052l1.588,-1.346l0.568,0.069l1.694,1.882l0.003,0.001l0.014,0.016l2.521,1.122l2.054,-1.796l1.236,-0.669l0.352,0.704l-0.155,1.347l-0.242,0.88l0.138,0.777l2.331,3.487l0.604,-0.086l0.501,-0.898l0.69,-0.708l0.605,-0.103l0.673,0.224l1.761,0.984l0.708,3.177l-0.207,0.742l-0.639,0.743l-1.485,3.435l-0.863,6.561l0.017,1.432l0.484,1.9l0.88,6.059l0.76,4.057l-1.727,1.295l-1.139,-0.086l-0.57,-0.156l-0.708,-0.017l-1.053,0.207l-0.449,0.277l-0.017,-0.622l-0.173,-0.587l-0.621,-0.449l-1.174,-0.466l-0.794,-0.846l-0.121,-0.604l0.086,-1.951l-0.293,-1.208l-0.432,-0.329l-0.673,0.052l-0.691,0.501l-0.587,0.155l-1.726,-0.587l0.224,-1.502l-0.967,-3.193l-0.552,-0.501l-0.863,-0.294l-0.863,0l-2.884,1.123l-0.966,0.604l-1.796,0.138l-0.673,-0.225l-2.02,1.261l-3.228,3.746l-0.104,0.673l0.086,1.243l-2.02,0.466l-2.348,0.07l-0.069,-0.035l-2.002,-2.935l-3.09,-1.329l-1.554,-2.866l-3.971,0.224l-2.408,-0.991l1.32,-0.856l0.794,-2.71l0.515,-0.018l1.384,0.069l1.244,0.38l0.811,-0.052l0.016,-0.015l0.019,-0.002l1.208,-1.295l1.07,-4.022l-0.932,-2.262l-0.362,-2.02l0.017,-0.578l0.639,-0.337l0.017,-0.017l1.743,-1.726l0.743,-0.984l0.207,-0.674l-0.052,-2.071l0.328,-0.622l1.537,-0.259l1.502,-0.034l1.709,-1.157l-0.104,-3.66l-0.31,-1.312l0.224,-1.088l0.501,-0.259l2.831,-1.087Z" style="fill:#818181;"/>

    <path id="V" d="M122.906,392.587l1.692,1.036l0.087,0.95l0.034,0.708l1.14,0.828l1.122,0.19l0.034,0l0.646,-0.017l0.494,0.017l0.673,0.207l0.691,0.587l0.379,1.381l0.208,0.674l0.69,0.414l2.314,-0.293l0.001,-0.014l0.033,-0.004l0.19,0.553l1.692,0.742l0.328,0.915l1.882,3.885l0.19,0.88l-0.139,1.07l0.985,1.088l1.536,1.536l2.21,2.866l0.224,2.435l-1.053,1.761l-0.69,2.123l-1.243,1.657l-0.691,1.347l-0.007,0.003l-0.01,-0.02l-1.243,0.673l-2.055,1.795l-2.517,-1.12l-1.695,-1.883l-0.002,0l-0.015,-0.018l-0.57,-0.069l-1.588,1.347l-0.582,-0.052l-0.834,-1.208l-0.328,-1.14l-0.017,-0.017l-0.035,-0.033l-0.95,-0.917l-0.466,-0.165l-0.811,-0.301l-1.371,-0.338l-0.908,-0.232l-3.418,0l-2.832,1.088l-0.5,0.242l-0.225,1.087l0.311,1.33l0.086,3.66l-1.709,1.156l-1.502,0.035l-1.519,0.259l-0.328,0.621l0.052,2.072l-0.207,0.673l-0.76,0.985l-1.709,1.726l-0.656,0.345l0,0.009l-0.017,0.008l-0.018,0.587l0.363,2.02l0.915,2.245l-1.071,4.039l-1.192,1.28l-0.793,0.05l-1.243,-0.38l-1.398,-0.052l-0.021,0l-0.014,0l-0.535,0.017l-0.794,2.711l-1.312,0.846l0.026,0.01l-0.026,-0.01l-1.002,0.656l-0.863,1.07l-0.659,-0.107l-0.17,-0.031l-0.932,-0.207l-0.639,-0.535l-0.017,0l-1.139,0.034l0.742,-2.693l0.846,-2.002l0.656,-0.242l0.863,-0.173l0.708,-0.362l0.863,-0.76l0.449,-1.157l0.138,-0.587l0.156,-0.932l0.224,-2.227l-1.347,-5.369l-0.293,-3.401l-1.226,-4.368l0.242,-0.535l1.174,0.069l3.159,-2.331l1.14,-3.194l0.604,-3.988l1.019,-2.002l0.276,-0.846l0.103,-0.898l0.018,-4.161l0.863,-2.814l-1.554,-2.693l-1.019,-1.536l-0.673,-1.744l0.553,-0.604l0.569,-0.38l0.674,-0.017l1.122,0.569l0.673,0.242l1.036,0.052l5.11,-1.174l0.535,-0.345l1.174,-1.312l0.76,-1.226l7.475,-0.225Z" style="fill:#b4b4b4;"/>

    <path id="IV" d="M123.21,308.305l0.708,0.431l0.794,0.536l0.673,0.638l0.57,0.587l3.228,3.764l0.294,0.449l0.345,1.157l-0.052,1.087l-0.138,0.76l3.401,0.967l1.917,0.966l4.333,1.917l2.952,0.276l0.052,0.242l0.069,1.26l-0.173,0.777l-0.12,0.759l0.155,0.639l0.311,0.449l0.794,0.535l0.069,0.207l0.242,2.227l-0.069,3.35l-0.277,1.571l-0.155,0.725l1.519,2.935l0.535,0.466l0.311,0.673l-0.069,1.312l-1.657,3.798l-0.967,1.347l-1.468,0.639l-0.777,0.086l-0.535,-0.086l-2.02,1.277l-1.899,3.384l-1.001,2.227l-0.414,1.157l-1.157,4.16l-0.276,1.882l-0.104,1.157l0.086,0.725l0.898,1.105l-0.086,0.967l-1.64,1.812l-1.675,0.587l-0.518,-0.552l-1.709,1.847l-0.259,0.639l-0.708,4.022l-0.19,4.213l-0.276,1.744l-0.19,0.966l3.142,7.717l0.294,0.467l0.414,0.569l0.449,0.294l0.95,0.207l1.691,-0.104l0.484,0.277l1.157,1.329l0.12,0.777l-0.794,2.227l-1.036,0.155l-1.035,1.122l0.794,4.092l-0.102,1.057l-2.281,0.29l-0.69,-0.415l-0.207,-0.656l-0.38,-1.381l-0.691,-0.587l-0.673,-0.207l-0.518,-0.017l-0.01,0l-0.007,0l-0.644,0.017l-1.117,-0.19l-1.14,-0.829l-0.034,-0.707l-0.104,-0.95l-1.692,-1.036l-0.017,0l-7.493,0.225l-0.759,1.225l-1.174,1.312l-0.518,0.346l-5.11,1.174l-1.036,-0.052l-0.656,-0.242l-1.122,-0.57l-0.018,0l-0.69,0.018l-0.57,0.38l-0.535,0.587l0.155,-2.745l0.259,-1.382l0.155,-0.673l0.208,-1.157l0.017,-2.486l-0.138,-3.487l-0.708,-1.692l-0.604,-2.917l-0.017,-1.779l-0.104,-0.759l-1.26,-5.956l-0.95,-3.833l-0.173,-0.535l0,-0.898l0.311,-1.536l0.121,-2.607l-0.293,-1.002l-0.38,-0.673l-0.121,-0.639l-0.535,-4.074l0.017,-2.952l0.086,-2.78l0.069,-1.519l0.432,-4.644l0.811,-1.951l0.743,-0.276l0.293,0.466l0.812,0.311l0.587,0.034l0.88,-0.431l2.573,-2.59l0.483,-0.863l1.139,-5.68l1.226,-1.243l-0.052,-2.123l-0.742,-0.777l-0.449,-1.675l0.104,-5.524l0.362,-2.124l0.311,-0.949l-0.017,-0.639l-0.794,-2.642l-0.346,-0.587l-0.604,-0.587l-1.312,-0.949l-0.604,-0.345l-0.518,-0.398l-0.276,-0.621l-0.07,-0.449l0.915,0.035l0.933,-0.19l2.969,-0.674l0.501,-0.224l0.345,-0.207l1.606,3.487l1.916,2.883l3.85,-0.483l1.916,-4.8l0.967,-1.933l1.882,-1.468l0.794,0.225Z" style="fill:#818181;"/>

    <path id="III" d="M176.929,204.098l-0.121,0.121l-0.5,1.105l-0.311,0.846l-0.501,2.089l-0.104,0.535l-0.069,0.829l0.087,0.656l1.053,3.228l1.295,2.728l0.19,0.673l0.949,4.402l1.347,6.906l-0.484,0.777l-1.484,1.364l-0.984,0.69l-0.622,0.501l-0.466,0.604l-0.328,1.278l-0.086,0.846l-0.104,1.502l0,0.552l0.034,1.312l0.139,0.553l0.241,0.552l0.674,1.053l2.572,3.056l3.453,5.352l0.19,0.57l-0.863,3.038l-0.76,0.466l-0.932,0.501l-0.466,0.224l-5.767,1.968l-1.208,-0.794l-1.088,-0.172l-1.053,0.069l-0.622,0.345l-0.984,1.588l-0.483,0.915l-0.276,0.846l0.224,1.053l-0.846,2.348l-3.47,6.543l-0.69,0.795l-0.984,2.831l-0.173,1.139l-0.863,3.539l-0.225,0.639l-0.328,0.725l-0.38,0.518l-0.707,0.173l-0.898,0.086l-0.915,0.466l-0.742,1.727l-0.277,1.225l-0.328,0.622l-1.174,1.502l-3.28,3.712l-1.795,1.502l-1.226,0.915l-0.173,3.901l-0.172,0.95l-0.777,0.431l-1.105,2.193l-0.017,1.381l0.172,0.622l0.242,0.621l0.155,0.932l-0.828,2.486l-0.777,3.643l0.051,1.502l-0.155,0.691l-0.311,0.5l-0.794,0.536l-1.554,0.172l-1.45,1.744l-1.692,2.52l-0.138,1.71l0.138,0.638l0.639,1.382l0.932,3.124l0.087,0.328l-2.953,-0.276l-4.333,-1.916l-1.916,-0.967l-3.401,-0.967l0.138,-0.759l0.052,-1.088l-0.346,-1.157l-0.293,-0.449l-3.228,-3.763l-0.57,-0.587l-0.674,-0.639l-0.794,-0.535l-0.707,-0.432l-0.795,-0.224l-1.881,1.467l-0.967,1.934l-1.917,4.799l-3.849,0.484l-1.917,-2.883l-1.605,-3.488l-0.346,0.207l-0.5,0.225l-2.97,0.673l-0.932,0.19l-0.915,-0.035l0.38,-2.123l-0.725,-3.712l-0.069,-2.244l0.207,-0.691l0.846,-0.949l2.227,-2.158l1.985,-2.434l0.207,-1.485l0.121,-1.675l0.605,-1.208l0.69,-1.088l1.64,-3.487l0.138,-3.177l0.018,-2.244l0.414,-5.335l0.863,-3.245l0.553,-1.623l0.915,-1.709l0.915,-1.278l1.053,-0.501l1.26,-0.949l0.535,-3.764l-0.414,-1.467l-0.673,-2.762l-0.743,-4.247l0.207,-0.674l0.311,-0.742l0.553,-0.432l1.45,-0.31l1.225,-1.692l0.708,-1.381l-0.397,-1.692l-0.414,-0.915l-0.138,-0.725l2.969,-7.407l0.242,-0.932l0.259,-3.435l1.088,-3.678l-0.743,-2.762l0,-0.915l0.242,-2.158l1.174,-1.623l1.364,-1.018l0.449,-0.277l0.466,-0.241l0.621,-0.225l0.691,-0.172l1.053,-0.208l2.279,-0.345l1.743,-0.173l3.125,-1.881l0.57,-0.501l0.915,-0.587l0.466,-0.259l0.881,-0.362l0.897,0.069l0.725,0.138l1.658,0.155l0.328,-0.034l1.951,2.624l3.85,2.883l2.399,-2.883l2.4,-0.484l0.967,-2.883l7.199,0l-0.242,-4.765l0.536,-0.017l0.5,-0.949l0.242,-1.882l0.5,-1.347l1.244,-0.984l0.535,-0.362l0.708,-0.38l0.863,-0.346l0.794,-0.12l0.949,0.138l1.226,0.069l0.604,-0.138l0.587,-0.432l0.829,-0.777l1.001,-0.846l0.777,-0.483l1.002,-0.259l1.329,0.017Z" style="fill:#b4b4b4;"/>

    <path id="II" d="M170.527,90.226l-0.673,0l-1.934,-0.76l-0.691,-0.414l-0.362,-0.518l0.259,-0.621l0.466,-0.277l0.552,-0.138l2.158,-0.276l4.455,0.587l1.847,0.121l0.121,0.276l0.518,0.57l0.638,0.293l0.656,0.104l0.622,-0.069l0.725,-0.017l4.782,7.699l1.002,1.675l0.069,8.2l0.397,0.484l0.759,1.036l0.415,0.811l0.414,1.243l0.363,1.968l0.069,0.587l0.034,0.984l-0.034,0.863l0.051,1.278l2.176,2.262l0.587,0.345l0.708,1.174l0.517,3.539l0,0.915l-0.241,0.69l1.036,3.332l1.001,3.401l-0.846,4.178l0.19,3.056l2.037,1.312l5.266,0.622l5.99,-1.278l3.729,-0.828l1.934,2.088l2.555,2.711l-1.157,3.228l-1.122,3.108l-1.105,3.107l-0.31,0.898l-4.541,16.798l-7.458,3.367l-6.371,2.848l-7.147,3.142l-1.554,0.725l-0.587,1.312l-1.018,1.33l-1.157,-0.19l-0.604,0.38l-1.778,2.71l-1.105,1.761l-0.812,1.588l-0.656,1.416l-0.086,0.846l0.57,1.502l1.174,0.69l3.556,6.095l-1.588,0.846l-1.623,0.259l-0.259,0.241l-0.449,0.743l-0.483,1.916l-1.33,-0.017l-1.001,0.259l-0.777,0.483l-1.001,0.846l-0.829,0.777l-0.587,0.432l-0.604,0.138l-1.226,-0.069l-0.949,-0.139l-0.795,0.121l-0.863,0.346l-0.708,0.379l-0.535,0.363l-1.243,0.984l-0.501,1.347l-0.241,1.881l-0.501,0.95l-0.535,0.017l0.242,4.765l-7.2,0l-0.966,2.883l-2.4,0.484l-2.4,2.883l-3.85,-2.883l-1.951,-2.625l-0.328,0.035l-1.657,-0.155l-0.725,-0.139l-0.898,-0.069l-0.88,0.363l-0.466,0.259l-0.915,0.587l-0.57,0.501l-3.125,1.881l-1.744,0.173l-2.278,0.345l-1.054,0.207l-0.69,0.173l-0.622,0.224l-0.466,0.242l-0.449,0.276l-1.364,1.019l-1.174,1.623l0.674,-1.209l0.103,-0.535l-0.086,-0.88l-0.483,-1.485l-0.691,-0.725l-0.483,-0.553l-0.812,-1.985l0.777,-2.849l0.414,-1.26l1.209,-2.624l1.467,-1.934l0.898,-0.673l2.124,-2.848l0.414,-2.849l0.017,-1.554l-0.552,-1.484l-1.157,-1.589l0.138,-3.573l-0.777,-1.589l-0.449,-1.467l-0.897,-3.401l0.397,-4.247l0.483,-4.316l0.207,-1.295l-0.31,-0.552l0.431,-2.21l0.38,-1.364l0.276,-0.518l0.19,-1.847l-0.121,-1.606l-0.414,-0.949l-0.017,-0.915l0.241,-3.332l0.328,-1.83l0.743,-0.984l0.639,-0.501l0.397,-0.725l0.5,-1.243l0.225,-0.725l0.155,-0.622l-0.017,-1.105l-0.207,-0.828l-0.311,-0.829l-0.328,-0.397l-0.829,-0.587l-0.69,-0.345l-0.535,0.224l-0.674,1.485l-2.089,-0.38l0.553,-3.228l0.12,-3.885l0.484,-4.385l0.863,-0.984l0.881,-0.397l0.19,1.174l0.483,0.639l1.467,-0.277l0.794,-0.397l0.484,-0.431l0.414,-0.501l0.294,-0.466l0.707,-1.675l0.519,-1.467l-0.139,-0.777l-0.207,-0.57l-0.242,-1.208l0.657,-3.833l0.621,-5.127l0.38,-3.643l0.483,-3.988l0.363,-1.675l0.518,-1.95l0.932,-6.664l-0.104,-0.812l-0.034,-1.778l0.432,-1.416l1.122,-0.966l0.138,-1.313l0.794,-2.796l0.362,-0.138l2.676,-0.139l0.622,0.052l2.762,0.311l1.519,0.259l1.71,0.621l1.847,-0.414l7.872,-1.847l6.595,-1.986l3.073,-0.328l2.279,-0.984l0,-0.828l0.156,-0.743l0.31,-0.673l0.397,-0.621l1.002,-1.848l0.241,-0.708l0.19,-1.122l-0.293,-0.656l-0.708,-0.172l-1.347,0.293l-0.621,0.052Z" style="fill:#818181;"/>

    <path id="I" d="M167.814,87.497l-0.552,0.138l-0.466,0.276l-0.259,0.621l0.362,0.518l0.691,0.415l1.934,0.759l0.673,0l0.621,-0.052l1.347,-0.293l0.708,0.173l0.293,0.656l-0.19,1.122l-0.241,0.708l-1.002,1.847l-0.397,0.621l-0.31,0.674l-0.156,0.742l0,0.829l-2.279,0.984l-3.073,0.328l-6.595,1.985l-7.872,1.847l-1.847,0.415l-1.709,-0.622l-1.52,-0.259l-2.762,-0.31l-0.621,-0.052l-2.676,0.138l-0.363,0.138l-0.794,-1.537l-0.121,-0.828l0.57,-0.881l-1.347,-5.127l-0.587,-1.329l-0.535,-1.123l0.414,-1.433l0.449,-0.845l-0.19,-1.364l-0.397,-0.725l-0.414,-0.328l-0.915,-0.812l1.018,-10.617l0.725,-2.365l0.121,-0.708l-0.638,-1.623l0.276,-1.968l0.328,-0.76l0.241,-0.759l0.052,-2.02l-0.017,-0.725l-0.345,-1.727l-0.881,-6.836l-0.742,-3.988l-0.863,-3.16l-1.088,-1.985l0.052,-1.105l3.953,-0.19l3.85,-2.4l3.833,-2.883l6.733,0l3.85,2.883l3.832,-0.483l0.484,-2.883l2.4,-2.4l3.711,0l-0.31,0.708l1.605,2.883l2.883,2.003l1.036,0.915l2.02,2.313l0.397,0.38l0.829,0.397l0.639,0.173l0.759,0.397l1.468,1.294l1.174,1.675l-2.642,2.745l-0.518,0.691l-0.725,1.07l-2.089,2.486l-0.069,1.001l1.571,1.123l1.45,1.243l1.071,2.158l-1.329,3.556l-0.812,-0.052l-0.984,0.138l-3.108,0.846l-0.189,0.656l0.448,0.57l1.123,2.624l0.431,2.624l-0.777,0.363l-0.483,0.552l0.052,1.312l0.328,0.691l0.362,0.535l0.829,0.881l0.708,0.483l0.794,0.397l0.725,0.294l0.725,0.241l0.518,0.225l1.399,0.966l0.621,0.674l-0.121,0.518l-0.915,0.552l-0.483,0.414l-0.881,1.209l-0.017,3.574l0.138,0.552l0.052,0.069l-1.847,-0.121l-4.454,-0.587l-2.159,0.276Z" style="fill:#969696;"/>

    <path id="XV" d="M134.392,45.166l0.035,-1.054l0.293,-0.638l-0.069,-1.088l-1.26,-6.992l-0.397,-1.053l-0.259,-5.041l0.242,-1.485l0.69,-3.574l-0.639,-0.949l-0.621,-0.639l-0.811,-0.621l-0.225,-0.087l0.38,-0.345l0.57,-0.311l0.949,-0.086l1.934,0.207l1.191,0.069l0.552,-0.034l1.123,-0.208l3.487,-1.312l0.794,-0.535l2.227,-2.348l0.57,-0.656l1.174,-2.382l0.535,-1.381l0.121,-0.846l-1.053,-3.885l-0.225,-0.483l-0.397,-0.38l-0.293,-0.466l0.103,-1.053l0.277,-0.691l0.483,-0.742l1.088,0.121l2.123,0.172l4.523,-4.057l0.311,3.263l2.728,2.417l0.501,0.466l0.69,1.347l0.225,0.708l-0.07,1.709l0.156,0.898l0.224,0.742l0.363,0.604l3.867,1.26l1.519,0.259l-0.034,0.76l-0.225,0.483l-0.897,0.553l-0.501,0.432l-0.242,0.638l0.328,0.76l0.518,0.535l0.587,0.708l0.397,4.212l0.346,0.57l0.517,0.691l0.225,0.466l0.172,0.621l-0.051,0.622l-0.173,1.346l0.086,1.33l0.104,1.208l0.587,2.175l1.208,2.659l0.467,0.95l-0.501,1.105l-3.712,0l-2.4,2.399l-0.483,2.883l-3.833,0.484l-3.85,-2.883l-6.733,0l-3.832,2.883l-3.85,2.4l-3.954,0.189Z" style="fill:#6b6b6b;"/>

</svg>